<svg xmlns="http://www.w3.org/2000/svg" width="539" height="463" viewBox="0 0 539 463" version="1.1"><path d="M 140.500 94.645 C 129.712 100.199, 120.102 107.249, 111.728 115.750 C 96.241 131.473, 88.321 144.982, 82.269 166 C 79.207 176.633, 78.026 200.612, 79.965 212.767 C 83.132 232.624, 92.262 252.427, 105.248 267.607 C 109.758 272.880, 123.864 286, 125.022 286 C 125.755 286, 123.498 269.672, 121.911 263.500 C 120.135 256.593, 115.941 246.192, 113.453 242.526 C 112.138 240.588, 111.321 238.327, 111.638 237.501 C 112.390 235.542, 110.004 235.554, 105.271 237.531 C 101.312 239.185, 97.846 238.754, 99.755 236.845 C 100.354 236.246, 100.648 235.247, 100.410 234.625 C 100.171 234.002, 101.766 231.326, 103.955 228.677 C 109.149 222.392, 109.658 219.216, 106.871 210.500 C 103.644 200.409, 103.775 187.076, 107.197 177.380 C 111.831 164.248, 124.009 146.830, 129.938 144.854 C 132.127 144.124, 129.860 141.001, 121.422 133.121 C 112.716 124.990, 112.705 125.336, 121.843 119.390 C 129.574 114.360, 133.888 110.157, 135.588 106 C 136.375 104.075, 139.827 99.927, 143.260 96.783 C 146.692 93.639, 149.050 91.061, 148.500 91.054 C 147.950 91.046, 144.350 92.662, 140.500 94.645 M 236.991 96.231 C 235.071 97.408, 233.319 98.506, 233.097 98.671 C 232.876 98.837, 233.888 99.911, 235.347 101.059 C 238.525 103.558, 238.675 105.079, 235.984 107.514 C 233.975 109.333, 233.975 109.344, 235.951 111.447 C 237.041 112.608, 240.446 118.437, 243.518 124.402 C 246.591 130.367, 249.756 135.899, 250.552 136.695 C 251.349 137.491, 252 138.395, 252 138.702 C 252 139.818, 244.735 138.043, 236.845 135 C 232.408 133.289, 228.569 132.097, 228.315 132.352 C 227.530 133.137, 230.604 138.293, 237.005 146.926 C 240.378 151.475, 242.899 155.435, 242.607 155.726 C 242.315 156.018, 240.060 155.749, 237.595 155.128 C 235.131 154.508, 231.064 154, 228.557 154 C 224.497 154, 224 154.245, 224.004 156.250 C 224.011 160.332, 233.098 174.179, 237.859 177.364 C 240.515 179.140, 242.801 181.690, 243.709 183.890 C 246.065 189.597, 247.810 191, 252.555 191 C 255.953 191, 257.861 191.798, 262.123 195 C 266.037 197.941, 268.400 199, 271.049 199 C 274.935 199, 277.558 201.128, 280.294 206.500 C 281.134 208.150, 283.099 210.668, 284.661 212.096 C 288.353 215.472, 299.226 223.107, 299.686 222.647 C 300.892 221.441, 302.996 203.841, 302.991 195 C 302.983 181.471, 301.794 174.079, 297.416 160.335 C 288.761 133.166, 271.269 111.937, 244.991 96.706 L 240.482 94.092 236.991 96.231 M 206.085 227.903 C 205.634 228.781, 204.960 234.495, 204.588 240.601 C 203.992 250.384, 204.152 252.311, 205.934 256.833 C 207.260 260.196, 207.743 263.037, 207.335 265.074 C 206.594 268.780, 208.286 279.194, 211.595 291.295 C 212.918 296.132, 214 300.744, 214 301.545 C 214 302.540, 215.185 303.035, 217.750 303.111 C 223.110 303.269, 226.423 302.904, 227 302.091 C 227.275 301.703, 229.075 300.773, 231 300.022 C 244.282 294.845, 256.077 287.426, 266.746 277.537 C 274.984 269.901, 287.705 254, 285.577 254 C 283.655 254, 279.177 248.482, 277.308 243.813 C 275.347 238.910, 269.127 233.566, 262.496 231.084 C 256.123 228.700, 242.265 227.188, 222.203 226.687 C 208.952 226.357, 206.797 226.519, 206.085 227.903 M 163.200 253.200 C 162.540 253.860, 162 254.924, 162 255.565 C 162 256.206, 161.152 257.808, 160.115 259.126 C 159.079 260.444, 157.755 264.576, 157.174 268.309 C 156.592 272.050, 154.969 277.094, 153.559 279.548 C 147.385 290.291, 146.211 292.675, 145.688 295.542 C 145.239 298.002, 145.485 298.611, 146.971 298.723 C 147.982 298.799, 150.765 299.828, 153.155 301.008 C 156.563 302.693, 159.189 303.133, 165.337 303.052 C 172.412 302.958, 173.225 303.145, 173.703 304.974 C 174.123 306.576, 175.057 307, 178.176 307 C 180.344 307, 181.875 306.607, 181.579 306.127 C 181.282 305.647, 180.160 297.435, 179.084 287.877 C 176.891 268.382, 173.879 258.128, 169.208 254.255 C 166.131 251.704, 164.910 251.490, 163.200 253.200 M 279.541 302.934 C 279.224 303.447, 275.796 317.060, 271.923 333.184 C 268.051 349.308, 261.984 374.357, 258.441 388.849 C 254.899 403.341, 252 416.067, 252 417.128 C 252 418.951, 252.730 419.043, 265.218 418.779 L 278.436 418.500 279.649 414 C 280.317 411.525, 281.376 406.913, 282.002 403.750 L 283.142 398 295.552 398 L 307.962 398 308.653 400.750 C 309.033 402.262, 310.083 406.875, 310.985 411 L 312.626 418.500 326.813 418.777 C 336.181 418.961, 341 418.700, 341 418.011 C 341 416.870, 334.622 389.859, 327.657 361.500 C 325.225 351.600, 321.078 334.500, 318.442 323.500 C 315.805 312.500, 313.164 303.169, 312.574 302.765 C 310.991 301.682, 280.218 301.839, 279.541 302.934 M 291.193 353.275 C 288.853 364.949, 286.952 374.950, 286.969 375.500 C 287.003 376.591, 302.574 376.760, 303.653 375.680 C 304.308 375.025, 297.261 335.504, 296.091 333.275 C 295.738 332.601, 293.534 341.601, 291.193 353.275 M 345 372.500 L 345 383 350.923 383 C 355.799 383, 357.377 382.553, 359.850 380.473 C 363.411 377.476, 364.568 373.252, 363.071 368.714 C 361.586 364.216, 357.469 362, 350.596 362 L 345 362 345 372.500 M 366.035 363.934 C 364.504 366.795, 364.763 370, 366.525 370 C 368.021 370, 370 366.262, 370 363.435 C 370 361.335, 367.240 361.683, 366.035 363.934 M 378.625 362.797 C 376.810 365.734, 370.312 381.979, 370.769 382.436 C 372.137 383.804, 374.773 382.793, 375.818 380.500 C 376.747 378.462, 377.670 378, 380.818 378 C 383.966 378, 384.889 378.462, 385.818 380.500 C 386.902 382.879, 391 384.124, 391 382.075 C 391 381.567, 389.122 376.842, 386.828 371.575 C 383.813 364.657, 382.165 362, 380.887 362 C 379.914 362, 378.896 362.359, 378.625 362.797 M 392 372.500 L 392 383 397.845 383 C 402.238 383, 404.101 382.546, 405.345 381.171 C 407.119 379.211, 407.585 374.480, 406.095 373.559 C 405.598 373.251, 405.441 371.131, 405.747 368.848 C 406.460 363.533, 404.572 362, 397.309 362 L 392 362 392 372.500 M 409 372.500 C 409 382.235, 409.142 383, 410.945 383 C 412.556 383, 412.943 382.184, 413.195 378.250 C 413.363 375.637, 413.348 370.913, 413.161 367.750 C 412.874 362.874, 412.532 362, 410.911 362 C 409.151 362, 409 362.829, 409 372.500 M 415.826 370.250 C 415.318 383.100, 415.272 383, 421.712 383 C 431.002 383, 436.483 377.024, 434.025 369.574 C 432.236 364.154, 428.799 362, 421.941 362 L 416.152 362 415.826 370.250 M 442.667 362.667 C 442.300 363.033, 442 366.858, 442 371.167 C 442 378.991, 441.092 380.692, 438.367 377.967 C 437.316 376.916, 434 377.637, 434 378.916 C 434 380.488, 436.660 382.797, 439.129 383.369 C 440.960 383.793, 442.554 383.352, 444.379 381.916 C 446.857 379.967, 447 379.368, 447 370.927 C 447 362.937, 446.808 362, 445.167 362 C 444.158 362, 443.033 362.300, 442.667 362.667 M 451.172 371.575 C 448.878 376.842, 447 381.567, 447 382.075 C 447 384.010, 450.842 382.891, 452.408 380.500 C 453.639 378.622, 454.916 378, 457.544 378 C 460.306 378, 461.283 378.527, 462.182 380.500 C 463.571 383.549, 467 383.895, 467 380.986 C 467 379.879, 466.549 378.191, 465.999 377.236 C 465.448 376.281, 463.667 372.462, 462.040 368.750 C 457.838 359.155, 456.424 359.523, 451.172 371.575 M 468.427 363.329 C 468.147 364.060, 468.048 368.673, 468.209 373.579 C 468.475 381.736, 468.671 382.500, 470.500 382.500 C 472.242 382.500, 472.564 381.667, 473 376.031 L 473.500 369.562 477.867 376.281 C 481.241 381.471, 482.777 383, 484.617 383 C 486.976 383, 487 382.895, 487 372.500 C 487 362.748, 486.861 362, 485.046 362 C 483.329 362, 483.055 362.820, 482.796 368.750 L 482.500 375.500 478 368.771 C 474.660 363.777, 472.912 362.036, 471.219 362.021 C 469.964 362.009, 468.708 362.598, 468.427 363.329 M 349 372.500 L 349 379 352 379 C 355.789 379, 359 375.860, 359 372.155 C 359 368.514, 356.211 366, 352.171 366 L 349 366 349 372.500 M 396 368 C 396 369.737, 396.511 370.074, 398.750 369.816 C 400.387 369.628, 401.500 368.893, 401.500 368 C 401.500 367.107, 400.387 366.372, 398.750 366.184 C 396.511 365.926, 396 366.263, 396 368 M 420 372.500 L 420 379 423 379 C 426.789 379, 430 375.860, 430 372.155 C 430 368.514, 427.211 366, 423.171 366 L 420 366 420 372.500 M 379.605 370.588 C 378.602 373.202, 378.906 374, 380.906 374 C 382.325 374, 382.678 373.485, 382.286 371.984 C 381.581 369.291, 380.349 368.649, 379.605 370.588 M 456.107 370.799 C 454.591 373.632, 454.694 374, 457 374 C 459.111 374, 459.554 372.424, 458.092 370.115 C 457.389 369.004, 456.996 369.139, 456.107 370.799 M 396 376.500 C 396 378.591, 396.474 379, 398.893 379 C 402.021 379, 403.530 376.930, 401.722 375.122 C 401.105 374.505, 399.565 374, 398.300 374 C 396.513 374, 396 374.558, 396 376.500" stroke="none" fill="#f56921" fill-rule="evenodd"/><path d="M 184.973 15.250 C 183.854 17.716, 183.035 21.745, 183.022 24.849 C 182.966 38.516, 192.414 44.559, 207.644 40.598 C 216.208 38.371, 222.124 38.523, 225.341 41.054 C 228.550 43.578, 230.420 49.766, 229.057 53.350 C 227.271 58.047, 224.496 58.923, 209.715 59.460 C 175.297 60.711, 161.396 66.591, 153.104 83.405 C 149.854 89.997, 147.646 92.975, 143.074 96.936 C 139.704 99.856, 136.567 103.606, 135.695 105.757 C 133.923 110.130, 129.727 114.260, 121.843 119.390 C 112.705 125.336, 112.716 124.990, 121.422 133.121 C 129.860 141.001, 132.127 144.124, 129.938 144.854 C 124.009 146.830, 111.831 164.248, 107.197 177.380 C 103.775 187.076, 103.644 200.409, 106.871 210.500 C 109.658 219.216, 109.149 222.392, 103.955 228.677 C 101.766 231.326, 100.171 234.002, 100.410 234.625 C 100.648 235.247, 100.354 236.246, 99.755 236.845 C 97.846 238.754, 101.312 239.185, 105.271 237.531 C 110.004 235.554, 112.390 235.542, 111.638 237.501 C 111.321 238.327, 112.138 240.588, 113.453 242.526 C 115.941 246.192, 120.135 256.593, 121.911 263.500 C 123.791 270.813, 125.637 285.642, 124.909 287.585 C 124.514 288.638, 123.221 291.895, 122.036 294.823 C 120.851 297.750, 120.057 300.675, 120.272 301.323 C 120.486 301.970, 124.900 303.403, 130.081 304.506 L 139.500 306.512 139.758 362.756 L 140.017 419 152.622 419 L 165.227 419 164.663 380.750 C 164.352 359.712, 164.343 343.400, 164.643 344.500 C 165.434 347.406, 175.799 391.345, 177.500 399 C 178.294 402.575, 179.750 408.425, 180.737 412 L 182.530 418.500 192.015 418.500 L 201.500 418.500 210.657 382 L 219.815 345.500 219.907 382.250 L 220 419 233.008 419 L 246.016 419 245.758 360.750 L 245.500 302.500 237 302.601 C 232.325 302.657, 226.925 302.815, 225 302.953 C 217.547 303.485, 214 303.031, 214 301.545 C 214 300.744, 212.918 296.132, 211.595 291.295 C 208.286 279.194, 206.594 268.780, 207.335 265.074 C 207.742 263.040, 207.261 260.200, 205.945 256.861 C 204.168 252.353, 204.013 250.424, 204.614 240.368 C 204.988 234.104, 205.791 228.354, 206.397 227.589 C 207.314 226.434, 211.040 226.340, 228.500 227.032 C 240.050 227.490, 251.900 228.340, 254.833 228.922 C 265.557 231.049, 274.504 236.821, 277.037 243.245 C 278.945 248.087, 282.869 253, 285.682 254.069 C 287.482 254.753, 289.078 254.582, 291.466 253.449 C 294.774 251.879, 313 234.746, 313 233.206 C 313 232.367, 309.582 229.829, 295.500 220.216 C 285.789 213.586, 282.299 210.438, 280.294 206.500 C 277.558 201.128, 274.935 199, 271.049 199 C 268.400 199, 266.037 197.941, 262.123 195 C 257.861 191.798, 255.953 191, 252.555 191 C 247.810 191, 246.065 189.597, 243.709 183.890 C 242.801 181.690, 240.515 179.140, 237.859 177.364 C 233.098 174.179, 224.011 160.332, 224.004 156.250 C 224 154.245, 224.497 154, 228.557 154 C 231.064 154, 235.131 154.508, 237.595 155.128 C 240.060 155.749, 242.315 156.018, 242.607 155.726 C 242.899 155.435, 240.378 151.475, 237.005 146.926 C 230.604 138.293, 227.530 133.137, 228.315 132.352 C 228.569 132.097, 232.408 133.289, 236.845 135 C 244.735 138.043, 252 139.818, 252 138.702 C 252 138.395, 251.349 137.491, 250.552 136.695 C 249.756 135.899, 246.591 130.367, 243.518 124.402 C 240.446 118.437, 237.041 112.608, 235.951 111.447 C 233.975 109.344, 233.975 109.333, 235.984 107.514 C 238.675 105.079, 238.525 103.558, 235.347 101.059 C 233.888 99.911, 232.876 98.819, 233.097 98.632 C 233.319 98.446, 235.750 97.015, 238.500 95.454 C 251.653 87.988, 271 72.767, 271 69.885 C 271 68.253, 266.107 68.978, 260.559 71.432 L 255.060 73.863 258.267 68.182 C 261.131 63.109, 261.475 61.643, 261.487 54.500 C 261.498 47.772, 261.061 45.606, 258.738 40.875 C 255.477 34.236, 247.824 26.728, 241.217 23.688 C 237.588 22.018, 234.654 21.526, 228.500 21.556 C 221.360 21.590, 219.453 22.046, 210.759 25.797 C 200.121 30.387, 197.013 30.870, 194.469 28.326 C 192.487 26.344, 193.031 20.729, 195.465 18.038 C 196.871 16.485, 196.851 16.181, 195.258 14.791 C 193.057 12.871, 189.484 11, 188.017 11 C 187.404 11, 186.034 12.912, 184.973 15.250 M 187.206 16.690 C 183.844 23.239, 185.268 30.577, 190.705 34.723 C 193.920 37.175, 195.175 37.493, 201.423 37.437 C 205.315 37.403, 210.194 36.803, 212.264 36.105 C 214.335 35.407, 218.457 34.814, 221.426 34.787 C 226.131 34.745, 227.341 35.172, 230.862 38.119 C 233.955 40.708, 234.775 42.011, 234.360 43.680 C 233.907 45.502, 234.162 45.770, 235.909 45.314 C 238.249 44.702, 238.644 45.924, 236.750 47.912 C 235.730 48.983, 235.914 49.100, 237.750 48.545 C 240.260 47.787, 240.478 48.239, 238.965 51.066 C 238.251 52.399, 238.251 53, 238.965 53 C 241.096 53, 239.883 55.895, 236.513 58.854 C 233.251 61.718, 228.892 63.438, 223 64.183 C 220.874 64.453, 220.522 64.986, 220.647 67.750 C 220.828 71.722, 219.833 71.856, 216.935 68.250 L 214.724 65.500 215.374 69.750 C 215.731 72.088, 215.658 74, 215.212 74 C 213.731 74, 212 71.629, 212 69.600 C 212 65.397, 209.855 69.807, 209.679 74.371 C 209.476 79.626, 208.758 80.087, 206.395 76.481 C 204.772 74.003, 204.841 70.006, 206.583 65.591 C 207.304 63.762, 206.916 63.711, 197.464 64.375 C 175.634 65.910, 167.473 69.724, 160.191 81.795 C 157.821 85.724, 152.704 92.168, 148.819 96.114 C 144.652 100.348, 140.786 105.409, 139.390 108.460 C 136.373 115.048, 134.056 117.170, 125.867 120.839 C 122.220 122.474, 118.964 124.249, 118.634 124.783 C 117.672 126.340, 134.215 141.586, 138.345 142.949 C 141.398 143.957, 142.848 143.879, 147.052 142.483 C 152.976 140.515, 154.234 140.756, 166.206 146.146 C 174.326 149.803, 175.989 150.200, 182.863 150.126 C 187.063 150.080, 193.200 149.586, 196.500 149.027 C 205.707 147.469, 217.526 147.825, 227.953 149.977 C 233.152 151.049, 237.507 151.827, 237.630 151.704 C 238.049 151.285, 222.911 131.513, 219.449 127.958 C 215.190 123.584, 215.141 122.878, 219.150 123.680 C 223.155 124.481, 225 122.224, 225 116.525 C 225 113.551, 225.955 110.951, 228.494 107.010 C 230.415 104.027, 231.653 101.262, 231.244 100.865 C 230.835 100.468, 228.925 99.998, 227 99.821 C 223.582 99.508, 223.699 99.397, 232 95.077 C 247.213 87.162, 261 78.008, 261 75.821 C 261 75.357, 257.348 76.814, 252.883 79.059 C 248.083 81.472, 241.080 83.944, 235.745 85.109 C 230.783 86.192, 225.955 87.489, 225.016 87.991 C 222.336 89.426, 218.443 89.892, 216.935 88.960 C 215.020 87.776, 216.318 86.795, 220.739 86.083 C 224.098 85.542, 224.534 85.131, 224.813 82.239 C 225.181 78.436, 225.386 78.372, 228.727 81 C 233.125 84.459, 236.117 83.638, 242.385 77.250 C 245.822 73.748, 248.414 70.085, 249.017 67.881 C 249.561 65.890, 250.977 63.028, 252.163 61.520 C 256.448 56.072, 253.226 44.540, 244.891 35.498 C 238.397 28.452, 236.118 27.571, 224.500 27.614 C 215.368 27.647, 213.979 27.915, 208.500 30.701 C 200.058 34.993, 197.178 35.436, 193.277 33.041 C 189.487 30.714, 188.287 27.033, 189.698 22.060 C 190.254 20.102, 190.887 17.852, 191.104 17.059 C 191.693 14.914, 188.283 14.591, 187.206 16.690 M 172 77.441 C 172 78.298, 171.615 78.888, 171.144 78.750 C 170.673 78.612, 168.408 80.868, 166.111 83.763 C 163.813 86.657, 160.379 90.032, 158.479 91.263 C 156.579 92.493, 155.019 93.788, 155.012 94.140 C 155.006 94.491, 157.025 95.377, 159.500 96.108 L 163.999 97.436 159.796 99.080 C 154.702 101.071, 153.992 102.584, 157.417 104.144 C 159.940 105.294, 159.952 105.345, 157.996 106.715 C 154.344 109.274, 155.907 110, 165.065 110 C 173.872 110, 174.199 110.084, 176.608 112.947 C 177.972 114.567, 179.856 116.115, 180.794 116.387 C 181.732 116.659, 184.490 117.396, 186.922 118.025 C 189.671 118.737, 190.878 119.457, 190.112 119.931 C 189.235 120.473, 189.578 121.149, 191.304 122.280 C 193.981 124.034, 221.066 133.267, 221.693 132.640 C 222.397 131.937, 209.660 120.835, 203.595 116.865 C 199.169 113.968, 198.248 113, 199.918 113 C 203.838 113, 201.951 109.649, 197.180 108.136 C 194.054 107.145, 192.162 105.690, 190.260 102.816 C 188.361 99.946, 187.125 98.996, 185.760 99.353 C 183.329 99.988, 182.407 97.597, 183.857 94.414 C 184.785 92.378, 185.451 92.067, 187.739 92.603 C 189.257 92.959, 192.188 94.861, 194.250 96.828 C 197.405 99.838, 197.997 100.096, 197.981 98.453 C 197.971 97.379, 196.582 94.302, 194.896 91.616 L 191.830 86.733 186.158 87.326 C 183.039 87.652, 179.955 87.590, 179.306 87.189 C 178.657 86.788, 177.235 84.381, 176.146 81.840 C 174.065 76.986, 172 74.795, 172 77.441 M 192.093 78.557 L 188.685 80.036 190.726 82.268 C 191.848 83.496, 193.464 85.883, 194.317 87.573 C 196.023 90.953, 198.735 93.598, 199.604 92.729 C 199.910 92.424, 199.493 91.122, 198.678 89.837 C 197.863 88.552, 196.899 86.070, 196.535 84.323 C 195.925 81.396, 196.094 81.120, 198.678 80.823 C 200.389 80.626, 201.612 79.818, 201.815 78.750 C 202.078 77.362, 201.459 77.008, 198.823 77.039 C 196.995 77.061, 193.967 77.744, 192.093 78.557 M 199.330 83.583 C 198.362 86.106, 201.166 90.443, 204.031 90.852 C 206.441 91.196, 206.455 91.160, 204.670 89.188 C 203.666 88.079, 202.993 86.132, 203.173 84.860 C 203.573 82.036, 200.336 80.960, 199.330 83.583 M 130.750 122.689 C 129.787 122.941, 129 123.621, 129 124.201 C 129 125.458, 136.999 124.398, 138.450 122.949 C 139.425 121.975, 134.161 121.798, 130.750 122.689 M 142.179 126.267 C 138.705 127.379, 132.320 132.653, 133.283 133.616 C 133.954 134.287, 146.953 126.821, 146.981 125.750 C 147.004 124.841, 146.447 124.901, 142.179 126.267 M 162.449 133.468 C 161.652 135.375, 161 138.316, 161 140.003 C 161 142.760, 161.202 142.962, 163 142 C 165.629 140.593, 167.818 137.159, 168.610 133.198 C 169.202 130.238, 169.051 130, 166.574 130 C 164.466 130, 163.591 130.736, 162.449 133.468 M 142.364 132.173 C 140.189 133.223, 138 136.921, 138 139.547 C 138 141.719, 138.674 141.366, 142.393 137.250 C 147.169 131.964, 147.157 129.862, 142.364 132.173 M 206 134.145 C 206 136.018, 210.810 143, 212.100 143 C 213.242 143, 209.306 135.499, 207.284 133.821 C 206.343 133.040, 206 133.127, 206 134.145 M 191.453 136.331 C 190.730 139.213, 194.317 145.648, 197.148 146.547 C 199.907 147.423, 200.104 146.961, 198.875 142.509 C 196.753 134.823, 192.682 131.435, 191.453 136.331 M 213 136.381 C 213 137.056, 214.437 139.834, 216.194 142.554 C 218.522 146.159, 219.491 147.026, 219.767 145.750 C 219.976 144.787, 220.575 144, 221.099 144 C 221.623 144, 221.372 142.687, 220.542 141.081 C 218.893 137.893, 213 134.220, 213 136.381 M 221.033 138.346 C 220.995 140.446, 224.030 146, 225.216 146 C 225.647 146, 226 145.464, 226 144.809 C 226 144.154, 226.661 144.491, 227.468 145.559 C 228.762 147.269, 228.940 147.297, 228.968 145.797 C 229.010 143.562, 226.910 139, 225.839 139 C 225.378 139, 225 139.500, 225 140.111 C 225 140.722, 224.115 140.159, 223.033 138.861 C 221.300 136.780, 221.063 136.719, 221.033 138.346 M 140 150.552 C 137.525 151.332, 134.536 151.976, 133.357 151.985 C 131.146 152, 130 153.741, 130 157.082 C 130 158.137, 129.598 159, 129.107 159 C 128.024 159, 127 156.531, 127 153.918 C 127 152.863, 126.594 152, 126.098 152 C 124.597 152, 123 157.974, 123 163.590 C 123 169.136, 121.776 171.209, 120.183 168.362 C 119.381 166.929, 118.780 167.321, 116.095 171.027 C 112.074 176.578, 109.710 184.731, 109.708 193.052 C 109.706 198.992, 112.824 215.056, 115.092 220.797 C 116.523 224.418, 116.317 224.769, 110.500 228.631 C 104.403 232.680, 103.747 233.427, 107.565 231.975 C 111.454 230.497, 112.883 230.771, 115.389 233.475 C 116.856 235.058, 119.872 236.460, 123.764 237.368 C 130.496 238.938, 132 239.627, 132 241.139 C 132 241.799, 129.709 241.914, 125.500 241.463 C 121.925 241.080, 119 241.028, 119 241.346 C 119 241.665, 121.595 243.687, 124.766 245.841 C 133.666 251.885, 136.323 259.033, 127.859 254.161 L 123.852 251.855 125.092 254.178 C 125.774 255.455, 128.111 259.109, 130.286 262.297 C 134.146 267.957, 134.685 270.644, 131.416 267.930 C 130.017 266.769, 129.571 266.856, 128.295 268.538 C 127.131 270.072, 126.918 272.493, 127.316 279.640 C 127.775 287.848, 127.577 289.319, 125.381 294.059 C 124.037 296.961, 123.301 299.701, 123.747 300.147 C 124.748 301.148, 139.759 303.306, 141.383 302.683 C 142.031 302.435, 143.186 298.692, 143.951 294.366 C 144.715 290.040, 146.154 284.700, 147.148 282.500 C 148.268 280.022, 149.009 275.837, 149.096 271.500 C 149.174 267.650, 149.569 263.150, 149.976 261.500 L 150.716 258.500 151.955 261.749 C 152.637 263.536, 153.658 264.712, 154.223 264.362 C 155.227 263.742, 154.889 256.675, 153.406 247.250 C 152.951 244.360, 153.099 243, 153.868 243 C 154.491 243, 155.016 243.787, 155.035 244.750 C 155.055 245.713, 155.755 247.625, 156.590 249 C 158.038 251.381, 158.089 251.214, 157.665 245.500 C 157.348 241.220, 155.899 236.525, 152.610 229.121 C 147.527 217.677, 147.635 218, 148.890 218 C 149.380 218, 151.877 221.262, 154.440 225.250 C 160.025 233.940, 159.584 231.678, 152.403 214.810 C 147.098 202.349, 146.345 200, 147.656 200 C 149.569 200, 161.484 210.250, 163.168 213.345 C 164.030 214.929, 163.878 215.096, 162.086 214.527 C 158.948 213.531, 159.381 216.820, 163.450 224.900 C 165.347 228.668, 169.221 239.328, 172.057 248.589 C 174.894 257.850, 178.291 267.862, 179.607 270.838 C 181.277 274.614, 182.002 278.100, 182.007 282.374 C 182.011 285.743, 182.298 291.508, 182.646 295.186 L 183.277 301.871 187.007 302.501 C 189.059 302.848, 194.509 302.623, 199.118 302.002 C 213.074 300.123, 212.067 301.488, 208.190 289.699 C 201.206 268.463, 198.820 245.077, 201.937 228.412 C 203.599 219.524, 202.384 214.780, 197.942 212.814 C 194.720 211.388, 194.216 210.238, 196.439 209.385 C 198.565 208.569, 199.229 203.982, 198.008 198.537 C 197.416 195.896, 197.166 193.501, 197.452 193.214 C 197.738 192.928, 199.994 196.926, 202.466 202.097 C 204.937 207.269, 206.968 211.175, 206.980 210.778 C 206.991 210.381, 205.879 205.656, 204.509 200.278 C 201.076 186.802, 201.272 183.728, 205.044 191.881 C 207.811 197.864, 211.147 202, 213.204 202 C 214.735 202, 217 195.282, 217 190.742 C 217 188.365, 216.314 183.787, 215.476 180.568 C 213.745 173.923, 214.071 172.653, 216.541 176.422 C 219.039 180.235, 220.906 186.005, 220.956 190.068 C 221.022 195.431, 218.348 203.324, 215.588 205.918 C 211.312 209.934, 210.949 221.214, 215.052 222.517 C 216.105 222.851, 222.035 222.378, 228.231 221.466 C 234.616 220.526, 241.663 220.069, 244.498 220.409 L 249.500 221.011 246.750 218.718 C 243.940 216.375, 243.268 215, 244.934 215 C 245.448 215, 250.722 218.631, 256.654 223.069 C 262.585 227.507, 268.659 231.382, 270.149 231.680 C 273.745 232.399, 276.584 235.571, 278.504 241.012 C 282.793 253.167, 285.828 252.973, 301.711 239.530 L 308.765 233.559 300.919 228.893 C 291.320 223.183, 286.654 219.613, 277.150 210.705 C 273.107 206.915, 267.707 202.843, 265.150 201.656 C 262.592 200.468, 258.832 198.221, 256.793 196.662 C 254.754 195.104, 252.610 194.123, 252.027 194.483 C 250.403 195.487, 251.842 197, 254.422 197 C 256.303 197, 256.673 197.472, 256.442 199.576 C 256.238 201.433, 256.547 202.004, 257.548 201.620 C 258.311 201.327, 259.180 201.481, 259.477 201.963 C 260.319 203.325, 253.331 205.232, 250.100 204.522 C 247.087 203.860, 243.227 200.440, 244.292 199.375 C 244.629 199.038, 245.633 199.490, 246.524 200.381 C 247.414 201.271, 248.673 201.986, 249.321 201.970 C 249.970 201.953, 249.713 201.481, 248.750 200.920 C 247.709 200.314, 247 198.705, 247 196.950 C 247 194.706, 246.540 194, 245.077 194 C 241.731 194, 237.459 189.354, 234.096 182.058 C 232.307 178.176, 230.731 175, 230.595 175 C 230.458 175, 230.519 176.463, 230.729 178.250 L 231.112 181.500 228.569 178.500 C 227.170 176.850, 224.557 171.277, 222.763 166.115 C 219.815 157.636, 219.173 156.591, 216.116 155.295 C 214.255 154.506, 209.744 153.611, 206.093 153.305 C 200.754 152.857, 199.194 153.061, 198.128 154.346 C 197.007 155.696, 197.145 156.498, 199.015 159.524 C 201.898 164.189, 201.167 164.720, 196.993 160.994 C 191.609 156.187, 191.761 156.791, 198.318 166.263 C 200.513 169.432, 202.073 172.260, 201.787 172.547 C 201.019 173.314, 191.558 165.597, 189.249 162.320 C 188.156 160.769, 186.980 158.588, 186.635 157.473 C 186.111 155.783, 185.338 155.510, 181.972 155.831 C 179.752 156.043, 176.603 155.664, 174.974 154.989 C 170.984 153.337, 167.497 155.622, 164.839 161.631 C 163.228 165.274, 162.923 167.831, 163.182 175.549 C 163.357 180.750, 163.151 185.003, 162.725 185.002 C 161.495 184.999, 159.892 180.051, 158.807 172.913 C 157.844 166.571, 158.742 160.090, 161.463 153.750 C 162.056 152.367, 161.720 151.998, 159.857 151.989 C 158.561 151.983, 155.291 151.308, 152.591 150.489 C 146.732 148.712, 145.825 148.716, 140 150.552 M 173 159.957 C 173 160.407, 175.921 162.016, 179.491 163.534 C 187.040 166.742, 193.093 171.603, 196.748 177.392 C 198.171 179.647, 199.523 180.932, 199.751 180.248 C 200.306 178.581, 196.899 173.228, 192.816 169.353 C 187.751 164.546, 173 157.552, 173 159.957 M 177 164.386 C 177 164.672, 178.673 165.700, 180.717 166.670 C 182.761 167.640, 186.174 170.174, 188.300 172.300 C 190.427 174.427, 192.382 175.951, 192.645 175.688 C 193.414 174.920, 186.946 168.021, 184.102 166.576 C 180.757 164.876, 177 163.717, 177 164.386 M 248.495 195.008 C 248.093 195.659, 248.481 196.909, 249.358 197.786 C 251.449 199.878, 251.974 199.094, 250.446 196.162 C 249.621 194.578, 248.991 194.205, 248.495 195.008 M 182.452 217.914 C 177.534 220.735, 172.881 226.205, 171.533 230.750 C 170.438 234.440, 172.280 233.272, 175.845 228.016 C 179.722 222.301, 187.172 218, 193.196 218 C 197.073 218, 198.276 216.704, 195.418 215.607 C 192.017 214.302, 187.280 215.145, 182.452 217.914 M 182.922 224.274 C 179.456 226.609, 174.575 232.908, 175.507 233.841 C 175.795 234.128, 177.486 232.954, 179.265 231.232 C 183.198 227.426, 188.726 225, 193.468 225 C 197.421 225, 198.203 223.556, 194.750 222.630 C 190.369 221.456, 186.254 222.028, 182.922 224.274 M 182.923 230.923 C 181.315 232.531, 180 234.603, 180 235.529 C 180 236.779, 180.746 236.413, 182.901 234.106 C 185.589 231.229, 187.793 230.456, 192.250 230.830 C 194.432 231.013, 194.552 229.426, 192.418 228.607 C 189.014 227.301, 185.749 228.097, 182.923 230.923 M 163.200 253.200 C 162.540 253.860, 162 254.924, 162 255.565 C 162 256.206, 161.152 257.808, 160.115 259.126 C 159.079 260.444, 157.755 264.576, 157.174 268.309 C 156.592 272.050, 154.969 277.094, 153.559 279.548 C 152.151 281.996, 149.904 285.913, 148.565 288.250 C 147.225 290.587, 145.863 294.863, 145.537 297.750 L 144.945 303.001 150.722 302.961 C 153.900 302.939, 160.202 302.928, 164.727 302.936 L 172.953 302.952 174.533 306.726 C 175.402 308.802, 179.705 324.880, 184.096 342.456 C 190.991 370.057, 193 377.350, 193 374.777 C 193 374.471, 196.212 361.009, 200.137 344.860 C 204.063 328.712, 207.831 313.208, 208.510 310.407 L 209.746 305.315 205.623 306.114 C 200.019 307.200, 182.248 307.210, 181.579 306.127 C 181.282 305.647, 180.160 297.435, 179.084 287.877 C 176.891 268.382, 173.879 258.128, 169.208 254.255 C 166.131 251.704, 164.910 251.490, 163.200 253.200 M 85.900 300.013 C 60.850 304.250, 44.948 334.863, 48.894 371.252 C 51.380 394.169, 60.911 409.986, 76.876 417.687 C 81.640 419.985, 84.127 420.462, 93.138 420.807 C 105.621 421.284, 111.874 420.143, 120.613 415.794 L 127 412.615 127 381.308 L 127 350 109 350 L 91 350 91 361.500 L 91 373 97 373 L 103 373 103 383.465 C 103 395.205, 102.526 396, 95.534 396 C 87.260 396, 80.588 389.951, 77.431 379.586 C 73.817 367.721, 74.633 348.374, 79.194 337.770 C 84.573 325.266, 97.821 321.636, 107.395 330.042 C 109.248 331.669, 111.034 333, 111.363 333 C 111.693 333, 115.192 328.704, 119.138 323.453 L 126.314 313.906 122.572 310.074 C 114.230 301.531, 100.003 297.628, 85.900 300.013 M 344.688 311.646 C 344.309 312.024, 344 316.308, 344 321.167 L 344 330 356.500 330 C 366.944 330, 369 329.753, 369 328.500 C 369 327.389, 367.833 327, 364.500 327 C 360.367 327, 360 326.796, 360 324.500 C 360 322.250, 360.400 322, 364 322 C 366.889 322, 368 321.583, 368 320.500 C 368 319.417, 366.889 319, 364 319 C 360.667 319, 360 318.667, 360 317 C 360 315.292, 360.667 315, 364.573 315 C 368.391 315, 369.091 314.711, 368.810 313.250 C 368.533 311.816, 367.392 311.500, 362.486 311.500 L 356.500 311.500 356.208 319.250 L 355.916 327 352 327 L 348.084 327 347.792 319.330 C 347.525 312.317, 346.515 309.818, 344.688 311.646 M 371.440 313.451 C 369.201 316.868, 369.908 319.001, 374.257 321.955 C 378.754 325.009, 378.700 326.500, 374.091 326.500 C 369.883 326.500, 368.905 328.633, 372.488 329.995 C 376.010 331.334, 379.767 330.286, 381.628 327.444 C 383.678 324.317, 382.152 321.628, 376.771 318.883 C 372.917 316.917, 372.744 316.660, 374.442 315.419 C 375.755 314.459, 376.811 314.364, 378.159 315.085 C 380.285 316.223, 382 315.537, 382 313.548 C 382 311.923, 379.805 311, 375.941 311 C 373.972 311, 372.533 311.784, 371.440 313.451 M 394.365 312.169 C 389.996 314.285, 388.073 322.972, 391.152 326.684 C 393.731 329.794, 398.688 331.161, 403.089 329.976 L 407.105 328.895 406.803 324.197 C 406.503 319.554, 406.457 319.496, 402.750 319.190 C 399.803 318.946, 399 319.233, 399 320.533 C 399 321.443, 399.900 322.423, 401 322.710 C 404.056 323.510, 403.596 327, 400.434 327 C 396.728 327, 394.322 325.420, 393.591 322.506 C 392.310 317.402, 396.800 313.213, 401.597 315.037 C 405.257 316.429, 407.409 314.536, 404.559 312.433 C 402.328 310.786, 397.479 310.661, 394.365 312.169 M 409.424 312.338 C 409.141 313.075, 409.043 317.232, 409.205 321.578 C 409.451 328.168, 409.790 329.534, 411.250 329.812 C 412.653 330.080, 413 329.437, 413 326.573 C 413 322.059, 414.234 322.036, 416.867 326.500 C 418.587 329.414, 419.504 330, 422.350 330 C 424.926 330, 425.895 329.508, 426.290 328 C 426.704 326.418, 427.654 326, 430.839 326 C 433.987 326, 435.004 326.436, 435.500 328 C 435.856 329.122, 437.013 330, 438.135 330 C 440.530 330, 440.287 328.956, 435.373 318.161 C 433.317 313.644, 431.546 310.985, 430.766 311.244 C 430.070 311.476, 427.874 315.356, 425.887 319.866 L 422.274 328.067 420.637 325.569 C 418.608 322.473, 418.578 321.376, 420.500 320.638 C 422.859 319.733, 422.381 314.380, 419.777 312.557 C 417.028 310.631, 410.135 310.486, 409.424 312.338 M 441 320.500 C 441 328.278, 441.272 330, 442.500 330 C 443.688 330, 444.016 328.493, 444.079 322.750 C 444.122 318.762, 444.416 316.175, 444.731 317 C 446.394 321.353, 453.249 330, 455.037 330 C 456.850 330, 457 329.273, 457 320.500 C 457 312.722, 456.728 311, 455.500 311 C 454.306 311, 454 312.464, 454 318.177 L 454 325.354 449.408 318.177 C 446.343 313.386, 444.182 311, 442.908 311 C 441.164 311, 441 311.819, 441 320.500 M 460 320.376 L 460 330 465.077 330 C 469.402 330, 470.605 329.549, 473.202 326.952 C 475.883 324.271, 476.184 323.410, 475.701 319.805 C 474.922 314.002, 472.290 311.771, 465.559 311.213 L 460 310.752 460 320.376 M 478.655 312.829 C 475.390 316.436, 477.335 321.293, 482.570 322.607 C 484.120 322.996, 485 323.934, 485 325.196 C 485 326.959, 484.552 327.100, 480.907 326.484 C 477.329 325.880, 476.857 326.016, 477.157 327.563 C 477.668 330.202, 482.337 331.427, 485.715 329.808 C 487.974 328.725, 488.500 327.815, 488.500 324.987 C 488.500 322.022, 487.992 321.246, 485.105 319.805 C 480.384 317.448, 479.660 316.527, 481.394 315.088 C 482.463 314.200, 483.414 314.151, 484.831 314.910 C 486.276 315.683, 487.074 315.616, 487.871 314.655 C 490.702 311.245, 481.703 309.461, 478.655 312.829 M 463.104 320.770 L 462.925 327.265 466.117 326.627 C 470.408 325.768, 472.003 324.273, 471.985 321.128 C 471.963 317.358, 470.766 315.962, 466.788 315.065 L 463.283 314.274 463.104 320.770 M 413 317 C 413 318.467, 413.667 319, 415.500 319 C 417.333 319, 418 318.467, 418 317 C 418 315.533, 417.333 315, 415.500 315 C 413.667 315, 413 315.533, 413 317 M 429.607 319.582 C 428.593 322.225, 428.909 323, 431 323 C 432.100 323, 433 322.587, 433 322.082 C 433 320.438, 431.805 318, 431 318 C 430.568 318, 429.941 318.712, 429.607 319.582 M 345.500 333.834 C 345.225 334.109, 345 339.690, 345 346.236 C 345 358.008, 345.025 358.136, 347.250 357.820 C 349.281 357.531, 349.549 356.819, 350 350.500 L 350.500 343.500 353.408 350.750 C 357.280 360.404, 358.783 360.335, 362.585 350.329 L 365.500 342.659 366 350.079 C 366.455 356.835, 366.702 357.529, 368.750 357.820 C 370.976 358.136, 371 358.012, 371 346.129 C 371 333.600, 370.587 332.377, 366.693 333.372 C 365.075 333.786, 363.719 335.908, 361.520 341.466 C 359.880 345.610, 358.260 349, 357.920 349 C 357.579 349, 356.037 345.962, 354.494 342.250 C 352.951 338.538, 351.315 335.080, 350.859 334.566 C 349.950 333.539, 346.293 333.040, 345.500 333.834 M 380.500 333.954 C 379.400 334.409, 377.375 335.992, 376 337.471 C 372.664 341.061, 372.452 349.438, 375.591 353.677 C 378.067 357.021, 384.562 359.578, 388.237 358.655 C 392.243 357.650, 396.836 353.253, 397.898 349.405 C 400.778 338.978, 390.475 329.828, 380.500 333.954 M 401.688 333.646 C 400.600 334.733, 400.888 351.923, 402.030 354.055 C 403.594 356.979, 408.678 359.230, 412.046 358.490 C 413.641 358.140, 416.099 356.482, 417.509 354.807 C 419.909 351.955, 420.054 351.180, 419.786 342.631 C 419.524 334.262, 419.333 333.500, 417.500 333.500 C 415.668 333.500, 415.478 334.255, 415.234 342.500 C 415.011 350.045, 414.648 351.768, 412.987 353.157 C 410.936 354.874, 407.521 354.607, 406.234 352.629 C 405.830 352.008, 405.275 347.486, 405 342.579 C 404.543 334.434, 403.558 331.776, 401.688 333.646 M 423.701 333.632 C 423.316 334.018, 423 339.687, 423 346.230 L 423 358.127 431.018 357.915 C 435.428 357.799, 439.328 357.995, 439.685 358.352 C 440.042 358.708, 441.158 359, 442.167 359 C 443.850 359, 444 357.939, 444 346 L 444 333 441.500 333 L 439 333 439.001 343.750 L 439.003 354.500 433.535 354.159 L 428.068 353.819 427.784 343.671 C 427.554 335.454, 427.205 333.467, 425.951 333.227 C 425.099 333.064, 424.087 333.246, 423.701 333.632 M 448.667 333.667 C 448.300 334.033, 448 339.690, 448 346.236 C 448 358.008, 448.025 358.136, 450.250 357.820 C 452.344 357.522, 452.500 357.004, 452.500 350.334 C 452.500 346.393, 452.762 342.906, 453.082 342.586 C 453.402 342.266, 456.093 345.603, 459.063 350.002 C 463.659 356.808, 464.880 358, 467.262 358 L 470.062 358 469.781 345.750 C 469.517 334.260, 469.376 333.500, 467.500 333.500 C 465.670 333.500, 465.475 334.264, 465.208 342.466 L 464.916 351.432 458.875 342.216 C 453.254 333.642, 450.771 331.562, 448.667 333.667 M 475.302 334.501 C 474.123 335.327, 472.855 337.382, 472.485 339.068 C 471.674 342.759, 473.766 345.546, 479 347.750 C 483.148 349.498, 484.276 350.963, 482.820 352.716 C 481.580 354.211, 478.142 354.375, 476.034 353.042 C 475.104 352.454, 474.097 352.504, 473.284 353.180 C 471.254 354.864, 471.750 355.913, 475.394 357.651 C 481.574 360.598, 488 356.964, 488 350.523 C 488 346.768, 485.897 344.725, 480.724 343.453 C 476.548 342.426, 475.470 339.622, 478.605 337.944 C 480.671 336.838, 481.495 336.828, 483.188 337.886 C 484.928 338.972, 485.509 338.916, 486.877 337.526 C 488.375 336.004, 488.351 335.767, 486.559 334.439 C 484.029 332.564, 478.020 332.597, 475.302 334.501 M 380.635 339.073 C 375.669 342.978, 377.896 353.730, 383.750 354.115 C 389.445 354.490, 394 351.102, 394 346.491 C 394 338.657, 386.474 334.480, 380.635 339.073 M 421.654 396.117 C 415.312 397.092, 409.245 401.170, 407.334 405.743 C 405.646 409.783, 406.188 416.507, 408.451 419.603 C 409.789 421.432, 409.950 421.431, 415.428 419.569 C 418.511 418.521, 421.487 417.118, 422.040 416.452 C 422.988 415.310, 429 398.437, 429 396.919 C 429 395.630, 426.554 395.363, 421.654 396.117 M 437.500 396.502 C 429.214 399.432, 424.762 407.689, 426.996 415.985 C 428.023 419.800, 428.271 420, 431.973 420 C 437.829 420, 440.712 418.486, 442.855 414.284 C 445.012 410.057, 449 398.407, 449 396.335 C 449 394.559, 442.736 394.651, 437.500 396.502 M 398.648 397.027 C 394.107 398.388, 389.136 402.235, 387.505 405.651 C 384.861 411.188, 386.098 420.056, 389.707 421.441 C 392.249 422.416, 400.058 419.841, 401.574 417.527 C 402.942 415.440, 409 398.540, 409 396.812 C 409 395.774, 402.371 395.911, 398.648 397.027 M 360.153 398.056 C 357.763 398.536, 354.439 399.732, 352.767 400.714 C 347.061 404.065, 344.423 412.722, 347.023 419.560 C 347.990 422.103, 348.328 422.223, 353.209 421.754 C 356.856 421.404, 358.877 420.635, 360.089 419.138 C 362.188 416.546, 367.903 403.018, 368.249 399.825 C 368.543 397.108, 366.788 396.725, 360.153 398.056 M 374.970 399.250 C 372.520 400.488, 369.500 403.029, 368.258 404.898 C 365.388 409.217, 365.172 416.756, 367.824 420.031 C 369.553 422.167, 369.915 422.220, 374.775 421.054 C 377.594 420.378, 380.354 419.279, 380.907 418.612 C 382.004 417.290, 389 399.398, 389 397.914 C 389 396.074, 379.459 396.982, 374.970 399.250 M 454.395 402.901 C 450.648 405.186, 447.409 410.200, 446.495 415.131 C 445.924 418.214, 446.171 419.006, 448.134 420.381 C 454.459 424.811, 465.159 419.794, 472.349 409.027 C 474.788 405.376, 474.422 404.386, 469.980 402.609 C 464.596 400.454, 458.211 400.574, 454.395 402.901 M 475.424 411.895 C 471.012 413.899, 468.338 418.361, 469.314 422.092 C 469.780 423.875, 469.529 424.100, 467.682 423.560 C 458.333 420.827, 454 422.511, 454 428.875 C 454 436.531, 461.324 443.001, 469.984 442.998 C 474.493 442.997, 481.090 440.437, 481.707 438.450 C 481.887 437.872, 480.451 435.550, 478.517 433.291 C 476.583 431.031, 475 428.916, 475 428.591 C 475 428.266, 477.415 428, 480.366 428 C 484.518 428, 487.344 427.193, 492.866 424.431 C 496.790 422.468, 500 420.495, 500 420.047 C 500 418.739, 492.130 412, 489.383 410.955 C 485.503 409.481, 479.911 409.857, 475.424 411.895 M 436 422 C 434.467 423.533, 433.998 425.342, 433.990 429.750 L 433.980 435.500 431.647 430.500 C 429.129 425.103, 424.543 422, 419.087 422 C 415.311 422, 413.594 425.874, 413.882 433.747 C 414.128 440.511, 423.829 447.712, 431.518 446.839 C 434.466 446.504, 434.497 446.437, 434.213 441 L 433.926 435.500 436.446 439.172 C 439.159 443.125, 447.373 447, 453.038 447 C 456.547 447, 456.551 446.964, 454.038 437.895 C 451.595 429.078, 449.332 425.140, 445.048 422.253 C 440.924 419.474, 438.591 419.409, 436 422 M 395.438 425.493 C 391.332 435.322, 395.156 443.484, 405.276 446.489 C 411.040 448.201, 416 448.461, 416 447.052 C 416 444.849, 410.921 430.307, 409.396 428.142 C 407.788 425.859, 400.850 422.067, 398.199 422.022 C 397.483 422.010, 396.241 423.572, 395.438 425.493 M 374.416 426.547 C 372.365 431.456, 373.276 437.987, 376.557 441.885 C 379.250 445.086, 384.222 447.381, 390.858 448.486 L 395.217 449.212 394.492 443.856 C 393.683 437.885, 389.236 427.239, 386.668 425.127 C 385.750 424.372, 382.976 423.526, 380.503 423.247 C 376.078 422.749, 375.981 422.801, 374.416 426.547 M 354.098 427.149 C 350.481 437.523, 356.838 446.780, 368.825 448.595 C 374.857 449.508, 375.496 448.486, 373.577 440.993 C 370.399 428.589, 366.430 424.011, 358.848 424.004 C 355.649 424, 355.059 424.391, 354.098 427.149 M 49 429 L 49 432 196 432 L 343 432 343 429 L 343 426 196 426 L 49 426 49 429" stroke="none" fill="#623b1e" fill-rule="evenodd"/></svg>