<?xml version="1.0" encoding="UTF-8"?>
<svg id="Calque_1" data-name="Calque 1" xmlns="http://www.w3.org/2000/svg" viewBox="0 0 508.5 437.25">
  <defs>
    <style>
      .cls-1 {
        fill: #fff;
      }

      .cls-2 {
        fill: #643713;
      }

      .cls-3 {
        fill: #623714;
      }

      .cls-4 {
        fill: #fd671a;
      }

      .cls-5 {
        fill: #3e3e3e;
      }

      .cls-6 {
        fill: #5d5d5d;
      }

      .cls-7 {
        fill: #454545;
      }

      .cls-8 {
        fill: #3c3c3c;
      }
    </style>
  </defs>
  <path class="cls-1" d="m291.89,216.01c-3.31-2.7-7.49-4.17-11.29-6.02-4.16-2.03-7.21-7.45-11.1-9.96-3.95-2.54-6.38-5.15-9.89-8.27-3.44-3.06-9.06-3.27-12.85-5.9-3.79-2.63-7.86-4.83-11.68-7.42-7.07-4.8-12.3-11.48-15.68-19.3-1.41-3.26-2.44-6.66-3.22-10.12,4.39-.76,8.85-.66,13.22.29,1.22.27,2.42-1.04,1.69-2.2-5.42-8.75-10.84-17.49-16.26-26.24,2.04-5.4,4.02-10.83,6.14-16.2,1.75-4.42,4.05-8.36,7.82-11.34,6.24-4.92,11.69-9.98,18.42-14.11,3.7-2.27,5.79-4.38,7.91-8.21.65-1.16-1.78-.73-3.06-.42-8.29,2-11.51,4.53-19.7,6.87,8.13-8.26,15.4-16.87,14.13-28.45-.4-3.6-4.58-8.39-6.11-11.69-1.82-3.92-7.48-9.95-11.69-10.79-9.32-1.85-12.48.02-21.93.72-2.67.2-9.36,3.95-12,4.31-2.3.32-6.51-.69-8.7-1.8-2.79-1.41-2.06-7.9.03-10.23,1.09-1.21-.26-2.91-1.48-2.54-.1,0-1.19-2.71-1.3-2.69-4.35.71-3.93,7.15-4.59,11.33-.75,4.74,2.03,8.44,5.83,11.33,4.1,3.12,7.47,2.58,12.51,1.98,5.95-.71,11.81-4.7,17.8-2.7,2.39.8,6.92,2.35,7.55,4.85.59,2.32,2.97,11.45,1.8,13.48-2.94,5.1-14.16,5.63-19.6,6.47-5.53.85-12.25-.61-17.76.4-5.44,1-10.84,2.3-16.04,4.19-5.03,1.82-9.91,4.17-14.26,7.31-4.53,3.28-4.58,9.41-7.67,14.05-1.78,2.68-7.05,3.36-9.05,5.89-1.81,2.29-3.92,4.34-6.16,6.22-4.51,3.79-9.53,6.9-14.21,10.48-3.54,2.71-10.5,7.44-8.71,12.81.94,2.82,3.97,3.26,6.41,4.13,2.9,1.03,5.64,2.63,7.95,4.66,2.25,1.97,4.39,4.46,3.38,7.63-.89,2.76-3.24,4.88-5.1,7-3.89,4.44-7.23,9.38-9.89,14.65-5.27,10.42-8.06,22.12-7.88,33.8.08,5.38,1.29,10.75.94,16.13-.15,2.3-.68,4.73-2.16,6.56-1.53,1.89.59,1.02-1.18,2.65-1.7,1.57-2.57,5.06-1.48,7.24.29.59.76-2.57-2.79,1.06-2.6,2.66,7.58-2.06,11.31-1.25,4.3.92,6.16,4.45,7.24,8.4,2.62,9.6,6.25,20.72,6.62,30.65.18,4.93.46,7.3-1.31,12.16-1.18,3.23-4.41,7.53-.36,8.07,1.76.23,7.57.89,9.27,1.45,1.37.46.87.62,1.9,1.54,1.18,1.06,4.8-1.2,6.31-1.89,1.77-.81-.73-2.81,0-4.49,1.72-3.96,4.89-4.1,5.41-8.35.55-4.48,1.33-8.87,2.68-13.18,1.37-4.34,3.22-8.52,5.5-12.46,1.66-2.85,4.21-8.05,8.18-7.79,3.15.21,5,3.86,5.97,6.44,1.54,4.09,6.78,8.98,7.66,13.25,1.04,5.04-2.6,9.68-1.56,14.71.83,4,1.24,8.5,3.23,12.14.81,1.49,2,2.33,3.71,2.25,4.8-.21,3.26.17,5.33,0,2.53-.21,6.14-.15,8.66-.36,2.01-.17,8.18-.79,9.71-2.34,2.75-2.78-.75-5.92-1.34-9.17-.91-5.03-4.26-9.66-4.91-14.73-1.28-10.05-2.03-20.17-2.27-30.3-.06-2.52-.1-5.04-.08-7.56.02-2.01.1-4.1.82-6,1.49-3.93,5.65-4.66,9.39-4.61,4.78.06,9.58.64,14.35,1,5.13.39,10.26.77,15.39,1.16,4.93.37,9.87.67,14.8,1.13,3.64.33,7.72.9,10.69,3.22,3.41,2.67,3.75,7.14,5,10.98,1.09,3.33,3.3,6.88,6.87,7.9,4.33,1.23,7.84-2.15,10.85-4.72,1.98-1.7,3.97-3.39,5.95-5.09,1.65-1.41,3.7-2.77,4.82-4.66,2.07-3.47-.09-7.14-2.87-9.41Z"/>
  <g>
    <path class="cls-3" d="m212.88,395.6c0-4.96.01-9.92.02-14.87.69-.84.64-1.85.63-2.83-.03-4.08-.07-8.16-.11-12.24.18-4.99.24-9.97-.03-14.96.26-5.23.21-10.45.03-15.68v-12.47c-1.7,1.41-1.58,3.42-1.94,5.03-2.88,13.19-6.67,26.16-9.65,39.32-2.17,9.63-4.63,19.17-7.08,28.72-5.76.06-11.52.12-17.28.18-2.4-7.48-3.68-15.23-5.61-22.82-2.1-8.22-4.02-16.48-6.06-24.71-2.05-8.28-4.13-16.57-6.24-24.93.09,3.42.07,6.81.06,10.2,0,3.49.06,6.97.1,10.46-.15,6.22-.23,12.45.05,18.67-.27,5.99-.21,11.97-.04,17.96-.04,3.85-.05,7.7-.12,11.55-.06,3.26-.2,3.45-3.35,3.46-6.09.03-12.18-.03-18.26-.05-.04-3.74-.1-7.48-.1-11.22,0-29.55,0-59.11,0-88.66,0-1.12-.05-2.25,0-3.37.05-1.35-.48-2.07-1.89-2.22-4.41-.47-8.65-1.89-13.07-2.33-3.28-.33-4.26-2.03-3.17-5.1.42-1.17.77-2.4,1.4-3.45,1.48-2.44,1.98-5.07,1.87-7.87.6-.73.66-1.6.54-2.48-1.44-10.75-3.2-21.45-7.66-31.45-1.4-3.13-2.14-6.72-5.21-8.89-.71-.5-.7-1.13-.6-1.95.29-2.36-.23-2.8-2.46-2.07-2.01.66-3.93,1.57-5.91,2.32-.84.32-1.79.48-2.37-.4-.55-.84-.19-1.67.49-2.35,2.67-.39,4.57-2.47,7.11-3.17,2.47-.68,5.08-1.35,6.82,1.14,2.15,3.09,5.27,3.73,8.61,4.41,2.35.48,5.23,0,7.24,3.06h-12.8c4.91,4.56,11.66,6.27,13.5,13.3-3.9-.13-5.76-3.98-9.35-4.44,2.36,5.64,6.64,9.68,9.35,15.89-3.59-1.83-4.75-.19-5.41,2-.93,3.06-1.67,6.04-.81,9.4,1.16,4.55,1.38,9.23-1.22,13.56-.64,1.06-1.18,2.19-1.75,3.29-.85,1.62-.68,2.83,1.31,3.38,4.79,1.32,9.67,1.96,14.63,1.85,1.52-.03,2.79-.45,3.1-2.43,1.01-6.44,1.88-12.93,5.12-18.78.74-1.34.88-2.82.86-4.34-.05-3.99-.04-7.98.01-11.97.02-1.16-.47-2.55,1.05-3.26,1.48.82.97,2.45,1.51,3.65.35.77.53,1.91,1.61,1.79,1.14-.13,1.02-1.26,1.02-2.1,0-4.45.48-8.96-1.08-13.28-.61-1.71-.28-3.43-.34-5.16,1.35,1.62,1.6,3.64,2.47,5.38.36.71.62,1.88,1.74,1.52.95-.31,1.19-1.42.89-2.22-.98-2.62-.36-5.41-1.11-8.07-1.1-3.85-2.69-7.49-4.33-11.12-1.15-2.54-2.72-4.94-2.97-7.87,3.52,3.89,5.57,8.8,9.01,12.75-1.79-10.9-7.89-20.2-11.41-31.35,6.09,3.17,10.04,7.31,13.8,11.89-3.22.92-3.39,1.19-2.51,4.07.69,2.28,1.81,4.38,3.01,6.42,3.31,5.63,5.01,11.9,6.87,18.04,2.97,9.83,5.49,19.79,9.93,29.11.43.91.76,1.81.77,2.85.05,6.57-.13,13.14.66,19.71.43,3.58.63,4.27,4.18,4.78.86.12,1.75,0,2.62.05,6.4.4,12.55-1.34,18.8-2.23,2.14-.3,2.85-1.23,1.95-3.18-1.31-2.85-1.77-5.91-2.83-8.8-2.34-6.39-3.83-13-5.15-19.65-.99-4.97-.9-10.13-1.78-15.04-1.01-5.59-.02-10.93.57-16.22.53-4.68,1.16-9.31,1.23-14.03.05-2.98-1.16-4.97-3.6-6.45-.9-.54-2.05-.72-2.68-1.75,4.54-3.5,1.91-8.5,2.59-13.43,3.25,5.35,4.96,10.76,7.89,15.58-.14-6.96-2.99-13.36-3.76-20.41,1.74.83,1.78,2.38,2.35,3.52,1.25,2.51,2.84,4.68,5.18,6.26,1.37.92,2.47.83,3.52-.55,1.89-2.48,2.56-5.35,2.67-8.35.2-5.25-1.11-10.26-2.94-15.42.54.26.78.31.91.46.4.47.82.95,1.13,1.48,4.45,7.75,3.83,15.6.33,23.46-.3.66-.79,1.3-1.34,1.78-4.06,3.51-4.31,8.2-3.98,13,.23,3.35,1.54,4.27,4.98,4.42,3.9.16,7.65-.8,11.48-1.16,3.94-.37,7.84-1.43,11.83-1.08,2.47.21,4.91.79,7.41,1.21.13-2.08-1.74-2.68-2.43-4.04,1.84-.54,2.8.66,3.85,1.44,4.01,2.97,7.91,6.08,11.95,9.01,2.3,1.68,4.67,3.27,7.64,3.74,2.14.34,3.43,1.99,4.26,3.87.8,1.81,1.64,3.63,1.92,5.63-.69,1.54-1.06.3-1.33-.21-3.26-6.15-8.77-9.37-15.06-11.52-7.04-2.4-14.39-2.85-21.74-3.12-5.86-.21-11.75.42-17.57-.36-3.12-.42-6.22-.31-9.32-.46-1.17-.06-2.38.13-2.87,1.32-.89,2.17-2.07,4.31-1.46,6.81.55,2.23.19,4.42-.04,6.67-.52,5.06-1.22,10.2,1.78,14.9,1.28,2.01,1.27,4.42.7,6.55-.85,3.21.13,6.17.57,9.22.21,1.47,1.01,2.89,1.03,4.35.07,5.73,2.47,10.91,3.57,16.38.84,4.19,2.35,6.95,7.16,6.36,7.93.05,15.86.1,23.79.16l.04-.05c0,32.55,0,65.09-.01,97.64,0,3.37-.06,6.73-.1,10.1-7.92,0-15.85.01-23.77.02Zm-71.08-108.59c.5,1.01,1.46.83,2.29.83,4.61-.02,9.23-.08,13.84-.12,2.34-.29,4.64-.51,7.05-.32,2.95.22,4.49,1.43,4.98,4.22.35,1.06.32,2.17.6,3.26,2.59,9.98,5.06,19.99,7.55,29.99,1.95,7.87,3.81,15.76,5.86,23.61.71,2.71.86,5.68,2.87,8.49,1.25-4.51,2.22-8.56,3.25-12.58,3.21-12.55,6.17-25.17,9.14-37.78,1.15-4.89,2.15-9.82,3.56-14.66.64-2.2.25-2.53-2.17-2.17-2.07.31-4.13.97-6.2,1-5.6.09-11.21-.06-16.81-.12-1.71-1.22-2.04-3.16-2.13-4.97-.13-2.62-.57-5.19-.88-7.77-.62-5.17-1.32-10.34-1.63-15.55-.32-5.42-2.72-10.29-4.32-15.39-.79-2.53-1.99-4.3-4.22-5.76-3.64-2.39-4.89-2.18-6.7,1.9-.6,1.36-.82,2.98-2.13,3.86-1.68,1.13-1.92,2.7-2.01,4.52-.33,6.84-1.98,13.26-6.42,18.71-.55.67-1.03,1.41-1.45,2.17-1.61,2.95-3.36,5.85-3.38,9.37-1.41,1.62-.52,3.48-.56,5.24Z"/>
    <path class="cls-3" d="m124.56,389.82c-5.02,4.15-10.94,6.29-17.19,7.66-7.73,1.7-15.61,2.15-23.23.07-10.64-2.91-18.75-9.49-24.22-19.12-4.76-8.38-7.46-17.36-8.31-27.02-.38-4.34-.79-8.68-.53-12.99.91-15.01,4.26-29.23,14.28-41.1,5.51-6.53,12.65-10.53,20.86-12.23,3.95-.82,8.24-.56,12.31-.14,7.34.76,14.27,2.84,20.13,7.69,5.49,4.54,5.54,4.48,1.38,10.1-2.75,3.7-5.55,7.37-8.22,11.13-1.07,1.51-1.8,1.75-3.05.19-5.05-6.27-12.07-5.84-18.89-4.89-3.36.47-5.79,3.29-7.79,6.08-2.62,3.67-4.53,7.78-5.38,12.14-.99,5.05-2.02,10.22-1.65,15.4.46,6.52.78,13.24,3.22,19.3,2.47,6.14,6.2,11.53,13.42,13.54,4.18,1.16,7.45-.39,10.95-1.85.77-.45.8-1.2.8-1.96,0-5.48,0-10.95-.01-16.43,0-.61-.03-1.26-.77-1.52-3.46-.07-6.92-.15-10.38-.22,0-7.17,0-14.34.01-21.5,10.68,0,21.36.01,32.04.02.03,8.19.04,16.37.08,24.56.04,11.04.1,22.07.15,33.11Z"/>
    <path class="cls-4" d="m271.77,376.84c-1.46,6.26-2.92,12.51-4.38,18.77-6.84.02-13.67.03-20.51.06-1.68,0-3.35.05-3.45-2.3.34-4.88,2.4-9.35,3.31-14.11,1.29-6.71,2.84-13.42,4.57-19.99,2.05-7.8,3.96-15.65,5.92-23.47,3.62-14.49,7.09-29.01,10.63-43.52.35-1.45.76-2.89,1.14-4.34,10.23-.06,20.46-.12,30.69-.19,1.91,4.85,2.61,10.02,3.89,15.04,2.67,10.46,5.16,20.97,7.71,31.46,2.7,11.08,5.63,22.11,8,33.25,2.01,9.43,4.94,18.64,6.58,28.15-8.46-.01-16.93-.03-25.39-.04-1.79-3.94-1.83-8.3-2.89-12.42-.54-2.08-2.14-3.9-1.65-6.25-.3-.21-.59-.58-.89-.59-7.43-.26-14.87-.26-22.3,0-.33.01-.65.32-.97.49Zm3.18-20.1c5.85,1.39,11.72,1.01,17.6.2.08-.01.15-.19.22-.29-.79-1.61-.58-3.4-.92-5.1-1.63-8.22-3.21-16.45-4.7-24.7-.8-4.44-1.51-8.9-3.01-13.3-1.35.83-1.35,2.02-1.56,3.06-1.58,7.9-3.02,15.83-4.7,23.71-1.16,5.44-2.27,10.89-2.94,16.42Z"/>
    <path class="cls-4" d="m231.51,90.94c6.54,3.84,13.14,7.57,19.08,12.37,19.64,15.88,32.08,36.18,37.52,60.78,2.22,10.05,2.32,20.3,1.67,30.47-.38,5.89-1.34,11.81-2.71,17.61-2.32-1.68-4.59-3.43-6.97-5.01-5.17-3.42-9.63-7.47-12.38-13.15-.27-.56-.62-1.08-1.01-1.57-1.73-2.15-3.74-3.66-6.75-2.87-1.6.42-2.89-.16-4.09-1.24-1.39-1.25-2.88-2.38-4.34-3.54-2-1.6-4.19-2.53-6.84-2.56-6.52-.07-7.28-.59-9.53-6.71-1.14-3.12-2.98-5.43-6.09-6.64-1.58-.62-2.77-1.72-3.71-3.04-3.21-4.45-6.13-9.1-8.35-14.13-1.61-3.66-.74-5.01,3.27-5.24.85-.05,1.72.17,2.57.33,3.86.72,7.72,1.47,12.12,2.31-5.31-7.72-11.69-14.07-15.21-23.26,2.89.99,4.95,1.52,6.85,2.39,3.64,1.66,7.43,2.89,11.23,4.09,1.62.51,3.25.85,5.27,0-3.92-3.96-6.39-8.4-8.43-13.08-2.24-5.14-5.01-9.94-9.14-14.52,1.09-.88,2.23-1.51,2.97-2.47,1.11-1.43,1.1-3.02-.4-4.31-.47-.4-1.03-.7-1.52-1.09-1.94-1.53-1.97-1.74.1-3.16,1.53-1.05,2.94-2.33,4.81-2.79Z"/>
    <path class="cls-4" d="m212.94,287.75c-4.81.6-6.32-2.17-7.16-6.36-1.1-5.47-3.5-10.65-3.57-16.38-.02-1.45-.82-2.88-1.03-4.35-.44-3.04-1.42-6.01-.57-9.22.57-2.13.59-4.54-.7-6.55-3-4.7-2.3-9.84-1.78-14.9.23-2.25.59-4.44.04-6.67-.62-2.5.56-4.64,1.46-6.81.49-1.19,1.71-1.38,2.87-1.32,3.11.15,6.2.04,9.32.46,5.82.79,11.71.15,17.57.36,7.35.27,14.7.71,21.74,3.12,6.29,2.15,11.8,5.37,15.06,11.52.27.51.64,1.75,1.33.21,1.01,1.39,1.43,3.05,2.04,4.62-.23,3.9,2.61,4.98,5.5,6.02-1.19.57-1.8,1.67-2.51,2.69-14.11,20.46-32.69,34.94-56.62,42.27-.32.1-.58.42-.87.63-.78,0-1.54.03-2.13.64Z"/>
    <path class="cls-3" d="m275.06,241.52c-2.9-1.04-5.74-2.12-5.5-6.02,1.91,2.93,4.58,3.1,7.5,1.9,1.49-.61,2.94-1.4,4.27-2.3,5.68-3.85,10.12-9.13,15.92-13.31-1.44-.81-2.48-1.46-3.58-2.01-9.57-4.78-18.06-11.03-25.7-18.49-2.14-2.09-4.39-4.07-6.68-6-2.39-2.01-4.89-4.01-7.88-4.94-2.48-.77-4.49-1.99-6.25-3.83-1.68-1.76-3.83-2.23-6.18-1.96-5.06.59-8.9-1.44-11.72-5.55-1.77-2.58-2.81-5.55-4.23-8.31-.63-1.22-.85-3.56-2.62-3.08-1.78.48.75,2.33-.24,3.56-1.48-1.07-2.3-2.62-3.1-4.15-2.13-4.11-3.68-8.48-4.77-12.94-1.03-4.22-3.17-6.41-7.61-7.24-3.95-.73-7.83-1.51-11.83-1.2-4.17.32-5.07,1.97-3.35,5.72.21.45.45.91-.19,1.55-1.89-.63-2.61-3.45-5.3-3.45,2.24,5.16,5.82,9.14,8.42,13.75-5.72-2.84-10.58-6.75-12.69-12.8-1.01-2.89-2.39-2.65-4.32-2.24-2.35.5-4.76,1.07-6.77-.6-2.09-1.73-3.87-1.1-5.76.14-1.92,1.27-3.45,2.92-4.38,5.01-2.48,5.62-4.08,11.37-2.48,17.6.3,1.16.35,2.47-.2,4.26-4.09-10.28-3.71-19.89,1.07-29.54-2.88-.1-5.56-.22-7.89-1.25-2.52-1.11-5.04-1.07-7.64-1.27-3.6-.27-6.79,1.31-10.19,1.76-3.37.44-5.74,1.52-6.35,5.13-.02.11-.38.17-.56.25-1.18-1.59-.41-3.98-2.28-5.49-2.33,2.28-3.17,5.02-3.26,8.07-.09,2.87.46,5.82-1.15,8.54-.88-1.74-1.94-2.36-3.39-.73-.58.65-1.11,1.35-1.6,2.07-6.64,9.74-8.07,20.37-5.48,31.72,1.02,4.44,2.63,8.78,2.63,13.41,0,.97.67,1.57,1.1,2.31,1.76,3.03,1.78,3.46-1.02,5.54-3.7,2.75-7.53,5.33-11.3,7.98-.23-2.68,1.53-4.41,3.1-6.14,3.93-4.32,5.5-8.99,3.19-14.74-3.53-8.79-4.17-17.84-2.13-27.14,2.33-10.58,7.57-19.7,13.76-28.37,1.89-2.65,4.13-4.94,6.8-6.88,1.08-.78,3.38-.58,3.05-2.7-.23-1.47-1.22-2.72-2.3-3.79-2.84-2.8-5.44-5.84-8.67-8.24-1.09-.81-2.07-1.8-3.03-2.78-2.02-2.08-2-2.28.18-4.02,3.12-2.5,6.55-4.55,9.9-6.72,3.49-2.26,6.84-4.87,8.28-8.87,1.8-5.02,5.32-8.31,9.55-11.11,1.24-.82,2.64-1.49,3.11-3.09,2.03-1.61,3.24-3.82,4-6.18,3.67-11.47,12.65-16.69,23.28-19.95,5.32-1.63,10.7-2.86,16.34-3.01,2.42-.07,4.88-.71,7.37-.75,4.58.05,9.16.11,13.74.12,1.47,0,2.99.19,4.32-.7,6.32-1.24,7.83-3.48,7.44-11.01-.24-4.7-4.09-8.76-8.78-9.19-3.12-.29-6.16.16-9.19.99-3.68,1.02-7.38,2.03-11.26,2.09-10.86.17-16.56-10.2-14.6-18.93.63-2.8,1.72-5.41,3.15-7.9.73-1.27,1.38-1.92,2.85-.87,1.9,1.36,4.35,1.86,6.25,3.75-1.97,2.61-3.77,5.26-3.61,8.7.11,2.39,1.62,4.42,3.96,4.56,2.83.17,5.66.32,8.39-1.15,4.17-2.24,8.45-4.4,13.09-5.42,8.73-1.93,17.25-1.62,25.02,3.54,5.44,3.61,9.88,8.29,12.04,14.42,3.84,10.87,3.16,21.24-5.62,30.75,5.96-1.21,10.52-4.86,16.49-5.35-.82,2.18-2.28,3.46-3.57,4.83-6.3,6.69-13.88,11.75-21.5,16.75-1.14.75-2.25,1.55-3.38,2.33-1.88.45-3.29,1.74-4.81,2.79-2.07,1.42-2.04,1.63-.1,3.16.49.39,1.05.68,1.52,1.09,1.51,1.3,1.51,2.88.4,4.31-.73.95-1.88,1.59-2.97,2.47,4.14,4.58,6.9,9.38,9.14,14.52,2.04,4.68,4.51,9.12,8.43,13.08-2.02.84-3.65.5-5.27,0-3.8-1.2-7.58-2.44-11.23-4.09-1.9-.87-3.96-1.4-6.85-2.39,3.52,9.19,9.9,15.54,15.21,23.26-4.4-.84-8.26-1.59-12.12-2.31-.85-.16-1.73-.38-2.57-.33-4.01.23-4.88,1.58-3.27,5.24,2.22,5.03,5.13,9.68,8.35,14.13.95,1.31,2.13,2.42,3.71,3.04,3.1,1.21,4.94,3.53,6.09,6.64,2.25,6.12,3.01,6.64,9.53,6.71,2.65.03,4.84.96,6.84,2.56,1.46,1.17,2.95,2.3,4.34,3.54,1.2,1.08,2.49,1.66,4.09,1.24,3-.79,5.01.72,6.75,2.87.39.48.74,1.01,1.01,1.57,2.75,5.68,7.21,9.73,12.38,13.15,2.38,1.58,4.65,3.33,6.97,5.01,3.63,2.63,7.21,5.32,10.9,7.85,1.61,1.1,1.98,2.07.51,3.49-5.11,4.91-9.89,10.16-15.32,14.73-2.32,1.95-4.97,3.25-8.1,3.28Zm-47.99-160.27l.07.08c1.37-1.43,3.92-1.72,4.69-3.31,1.49-3.06,4.33-4.66,6.36-7.08.63-.76,1.4-1.31,1.57-2.42.49-3.37,1.72-6.45,4-9.04.66-.76,1.2-1.54,1.24-2.64.15-3.87.19-7.65-1.54-11.33-2.53-5.39-5.87-10.13-10.3-14.08-1.88-1.68-4.09-2.75-6.55-3.43-3.69-1.02-7.45-.42-11.16-.72-5.56-.45-10.58.94-15.33,3.77-1.91,1.14-4.01,1.84-6.19,2.48-3.2.94-5.79.15-7.81-2.01-2.27-2.44-3.53-5.41-1.82-8.85.55-1.11.75-2.44,1.48-3.41,1.32-1.76.44-2.72-.96-3.57-1.59-.97-2.53-.09-3.3,1.25-2.55,4.47-3.41,8.96-.78,13.78,2.35,4.31,9.21,8.45,13.58,7.69,5.71-1,11.39-2.23,17.08-3.32,3.29-.63,6.7-.57,9.25,1.63,2.57,2.22,6.3,4.16,4.85,8.64,1.14.49,1.92-.91,2.89-.18.29,1.55-1.48,2.23-1.47,3.6,1.36.94,2.21-1.11,3.51-.48.08,1.83-1.85,2.52-2.31,4,.49,1.19,2-.13,2.51,1.2-.79,2.26-2.53,3.81-4.58,5.08-3.13,1.93-6.65,2.7-10.21,3.22-3.64.53-3.99.87-3.68,4.39.06.64.78,1.28.11,1.96-2.23-.76-2.43-3.51-4.49-4.78-.46,2.81-.24,5.24.54,7.91-2.84-1.01-3.09-3.57-4.47-5.84-1.66,3.46-2.61,6.64-1.84,10.49-2.05-1.5-2.6-3.23-2.71-5.15-.13-2.12.1-4.17.86-6.21.97-2.61.83-2.8-1.89-2.73-6.8.17-13.64.25-20.33,1.58-9.78,1.95-17.98,6.31-22.59,15.87-2.69,5.57-6.88,10.05-11.45,14.17-3.55,3.2-6.9,6.71-8.25,11.37-1.41,4.86-4.74,7.39-9.04,9.2-2.98,1.26-6.03,2.39-8.79,4.11-2.31,1.45-2.43,1.78-.62,3.57,4.16,4.13,8.33,8.25,12.69,12.17,4.13,3.72,8.72,5.37,14.32,2.89,3.67-1.63,7.53-1.29,11.2.53,2.79,1.38,5.64,2.63,8.41,4.05,6.9,3.53,14.09,3.78,21.55,2.32,4.24-.83,8.55-1.46,12.86-1.76,8.22-.57,16.32.63,24.34,2.33,2.62.56,5.1,1.76,8.27,1.85-6.73-9.25-13.09-18.34-20.37-26.56.67-.87,1.19-.81,1.67-.84,4.87-.27,5.24-.57,5.12-5.5-.08-3.55,1.22-6.53,3.26-9.28,1.19-1.6,2.44-3.17,3.16-5.06.63-1.65.26-2.62-1.75-2.67-1.19-.03-2.7.56-3.6-1.19,4.97-2.66,9.8-5.22,14.62-7.82,5.72-3.08,11.28-6.41,16.12-10.79,1.46-1.32,2.96-2.66,4.05-4.73-1.96.02-3.13.79-4.33,1.4-3.1,1.59-6.11,3.38-9.26,4.88-3.93,1.88-7.99,3.46-12.48,3.34Z"/>
    <path class="cls-4" d="m145.29,88.51c-.47,1.6-1.87,2.27-3.11,3.09-4.23,2.8-7.75,6.09-9.55,11.11-1.44,4-4.79,6.61-8.28,8.87-3.35,2.17-6.78,4.22-9.9,6.72-2.18,1.74-2.19,1.94-.18,4.02.95.98,1.93,1.97,3.03,2.78,3.23,2.4,5.84,5.44,8.67,8.24,1.08,1.07,2.07,2.33,2.3,3.79.33,2.12-1.97,1.92-3.05,2.7-2.67,1.94-4.91,4.23-6.8,6.88-6.19,8.68-11.44,17.79-13.76,28.37-2.04,9.3-1.41,18.35,2.13,27.14,2.31,5.74.75,10.42-3.19,14.74-1.58,1.73-3.33,3.46-3.1,6.14-.22.34-.44.68-.66,1.02-.68.68-1.04,1.51-.49,2.35.58.88,1.53.72,2.37.4,1.98-.75,3.9-1.67,5.91-2.32,2.23-.73,2.75-.28,2.46,2.07-.1.82-.11,1.45.6,1.95,3.08,2.17,3.81,5.76,5.21,8.89,4.47,10,6.22,20.69,7.66,31.45.12.88.06,1.75-.54,2.48-1.66-2.59-4.4-3.99-6.63-5.95-18.59-16.41-30.34-36.65-34.82-61.11-1.23-6.73-2.37-13.49-2.04-20.31,1.09-22.8,7.75-43.74,21.74-62.04,10.8-14.12,24.28-24.91,40.5-32.25,1.14-.52,2.24-1.09,3.51-1.22Z"/>
    <path class="cls-3" d="m189.81,408.4c-44.18,0-88.35,0-132.53,0-1,0-2-.05-2.99,0-1.61.1-2.56-.26-2.55-2.21,0-1.84.73-2.45,2.45-2.32.87.07,1.75,0,2.62,0,88.85,0,177.71,0,266.56,0,.87,0,1.75.06,2.62,0,1.62-.11,2.19.61,2.17,2.2-.02,1.49-.36,2.42-2.07,2.3-.87-.06-1.75,0-2.62,0-44.55,0-89.1,0-133.65,0Z"/>
    <path class="cls-3" d="m450.94,404.79c2.55,3.06,4.78,5.87,7.16,8.54,1.32,1.48.89,2.24-.63,3.1-10.62,6.01-19.49,2.67-23.95-7.77-1.74-4.07.5-7.58,4.83-7.76,2.5-.1,4.95.05,7.25,1.08.83.37,1.6.61,2.54.14-.05-.8-.04-1.63-.18-2.43-.93-5.61,2.51-8.19,5.92-9.53,8.36-3.27,15.79-.14,21.04,6.45.84,1.05.6,1.68-.5,2.35-4.9,3.02-10.13,5.18-15.76,6.4-2.46.53-4.81-.71-7.73-.58Z"/>
    <path class="cls-3" d="m440.62,380.73c3.42-.58,6.43,1.1,9.59,2.05,1.06.32,1.75.96.95,2.22-3.8,5.9-7.86,11.49-14.94,13.94-1.49.52-2.94.69-4.37.4-4.34-.86-7.29-2.48-4.88-8.3.52-1.26.97-2.57,1.66-3.75,2.65-4.55,6.42-7.17,11.99-6.55Z"/>
    <path class="cls-3" d="m434.27,422.37c-9.23,1.03-16.36-3.16-19.38-11.17-1.42-3.76-.7-7.33,1.05-10.73,1.05-2.03,3.21-2.53,5.92-1.45,3.87,1.55,6.67,4.21,8.11,8.23,1.74,4.87,3.33,9.77,4.31,15.12Z"/>
    <path class="cls-3" d="m389.91,376.2c-.96,5.19-3.24,9.63-4.78,14.32-.15.46-.68.83-.72,1.27-.41,4.08-3.3,5.46-6.71,6.41-5.44,1.52-7.28.46-8.27-5.66-1.61-9.9,7.39-15.94,14.44-16.34,1.86-.11,3.73-.02,6.05-.02Z"/>
    <path class="cls-3" d="m357.34,409.92c0-.37-.02-.75,0-1.12.2-2.98.22-6.82,3.4-7.53,3.32-.74,7.15.11,9.78,3.13,1,1.14,1.67,2.48,2.26,3.85,1.88,4.35,3.04,8.91,3.92,13.54.27,1.39.1,2.36-1.77,2.42-7.3.23-14.21-3.6-17.38-10.97-.42-.97-.22-2.2-.31-3.32h.09Z"/>
    <path class="cls-3" d="m423.38,375.45c5.55-.05,4.68.16,3.31,4.62-1.13,3.67-2.43,7.3-3.85,10.88-1.87,4.7-7.68,7.58-12.45,6.19-2.24-.65-2.65-2.76-2.82-4.74-.91-10.34,5.33-16.99,15.82-16.95Z"/>
    <path class="cls-3" d="m400.18,400.11c5.95.15,9.89,3.64,11.98,9.34,1.31,3.58,1.09,7.28,1.98,10.86.56,2.23-.83,3.47-2.96,2.96-2.62-.63-5.3-1.11-7.78-2.3-6.51-3.12-9.7-10.91-7.11-17.57.99-2.55,1.92-3.33,3.89-3.28Z"/>
    <path class="cls-3" d="m370.79,377.35c-.52,4.16-2.77,7.7-3.77,11.63-.24.96-.66,1.87-1.02,2.8-1.96,5.1-6.94,7.85-12.34,6.86-2.18-.4-2.58-2.32-2.93-3.85-2.13-9.36,4.71-17.78,14.36-17.82,1.83,0,3.71-.33,5.7.39Z"/>
    <path class="cls-3" d="m338.6,408.72c.52-7.79,2.16-7.62,9.99-5.47,2.71.75,4.31,2.93,5.26,5.47,1.13,3,2.08,6.07,3.1,9.11.04.12.1.23.13.35,1.43,5.73-.11,7.1-5.95,6.02-3.22-.6-5.82-2.07-8.17-4.05-3.12-2.63-4.69-6.08-4.37-11.43Z"/>
    <path class="cls-3" d="m409.16,375.88c-1.93,5.66-3.77,11.07-5.61,16.49-.52,1.53-1.61,2.54-3.06,3.06-1.74.62-3.39,1.44-5.24,1.81-4.19.84-5.76-.16-6.41-4.43-1.32-8.66,3.49-15.26,12.16-16.62,2.53-.4,5.04-1.37,8.17-.3Z"/>
    <path class="cls-3" d="m375.98,409.35c.8-2.92,2.09-5.72,3.54-8.45.45-.84,1.26-.76,1.93-.32,1.38.9,2.99,1.12,4.51,1.58,3.94,1.2,5.67,4.35,6.68,7.89,1.04,3.66,2.64,7.16,3.23,10.96.28,1.8-.63,3.34-2.28,3-6.37-1.3-12.64-2.89-16.04-9.32-.86-1.63-1.22-3.42-1.55-5.33Z"/>
    <path class="cls-3" d="m331.9,390.88c-.71-7.17,6.05-12.41,12.09-13.14,1.84-.22,3.66-.56,5.49-.74,2.04-.2,2.64.58,2.02,2.56-1.63,5.2-3.3,10.38-6.05,15.13-1.9,3.28-7.01,5.63-10.5,4.66-2.31-.64-2.42-2.97-2.98-4.76-.36-1.13-.07-2.47-.07-3.71Z"/>
    <path class="cls-4" d="m177.62,290.67c-1.63.33-3.18-.09-4.76-.38-1.17-.21-2.57-.49-2.89,1.33-.5-2.79-2.03-4-4.98-4.22-2.41-.18-4.71.03-7.05.32-.8-.82-1.77-1.27-2.93-1.28-4.35-1.19-8.59-2.67-12.65-4.66.02-3.52,1.77-6.43,3.38-9.37.42-.76.9-1.5,1.45-2.17,4.44-5.45,6.09-11.86,6.42-18.71.09-1.83.33-3.4,2.01-4.52,1.31-.88,1.53-2.5,2.13-3.86,1.81-4.08,3.06-4.29,6.7-1.9,2.22,1.46,3.42,3.23,4.22,5.76,1.6,5.09,4,9.97,4.32,15.39.31,5.21,1.01,10.37,1.63,15.55.31,2.59.75,5.15.88,7.77.09,1.81.42,3.75,2.13,4.97Z"/>
    <path class="cls-5" d="m189.89,206.67c-4.35.23-8.61.68-12.5,2.93-3.67,2.11-5.77,5.83-8.75,8.65,2.79-9.5,14.22-15.71,21.25-11.58Z"/>
    <path class="cls-8" d="m190.62,213.84c-7.78-.92-13.84,1.53-18.74,7.57,1.61-8.11,12.55-12.6,18.74-7.57Z"/>
    <path class="cls-6" d="m186.05,161.98c-4.27-3.14-9.06-5.31-14.19-7.69,4.52.11,11.74,3.96,14.19,7.69Z"/>
    <path class="cls-7" d="m185.82,217.8c-4.16,1.25-7.89,2.33-10.2,6.84,1.18-5.63,4.47-7.73,10.2-6.84Z"/>
    <path class="cls-2" d="m152.89,104.82c1.21-2.41,3.86-2.45,5.17-4.58-2.37-.61-4.98-.08-6.67-2.45,2.74-2.05,6.37-2,9.57-4.31-3.3-.31-6.03-1-7.53-3.97,4.99-3.08,8.6-7.98,12.52-13.3.52,1.66.6,3.11,1.75,4.41.1-2.01.18-3.78.29-5.92,2.01,1.52,2.39,3.65,3.2,5.48,2.03,4.64,2.15,4.76,7.18,4.75.62,0,1.26-.05,1.87.03,2.16.3,5-1.12,6.39.76,2.07,2.79,4.38,5.67,5.15,9.97-1.75-1.8-3.04-3.12-4.33-4.44-1.25-1.27-2.7-2.23-4.48-2.54-3.29-.58-5.94,1.57-6.01,4.92-.03,1.66,1,2.85,2.55,2.42,2.14-.59,3.13.52,3.83,1.99,1.91,3.99,4.92,6.45,9.33,7.07,1.22.17,2.14.59,2.59,1.7-1.35,2.45-3.6-.05-5.61,1.18,8.4,4.83,16.03,10.26,22.25,17.57-9.08-3.11-18.71-4.41-27.15-9.38,1.18-1.81,3.13-1.01,5.01-1.55-2.56-1.31-5.06-1.51-7.45-1.85-4.71-.67-9.08-1.76-11.43-6.46-.66-1.33-1.82-1.13-2.9-1.13-3.87-.03-7.74,0-11.6-.02-1.08,0-2.18.17-3.48-.34Z"/>
    <path class="cls-2" d="m192.52,140.06c-3.35-.87-4.3-3.45-5.7-5.58q-1.99-3.05,1.04-6.06c2.94,3.21,5.05,6.67,4.66,11.65Z"/>
    <path class="cls-2" d="m163.95,124.81c-.8,4.49-1.08,8.99-6.32,10.87-.79-3.68.61-6.69,2.01-9.69.93-2,2.58-1.33,4.32-1.18Z"/>
    <path class="cls-2" d="m227.06,81.25c-2.45,1.56-5.47,1.1-8.04,2.26-1.46.66-2.96,1.25-4.48,1.75-1.75.57-3.55,1.04-5.23-.57,1.41-.75,2.72-1.16,4.22-1.27,3.74-.27,4.16-.82,4.53-4.75.03-.33.21-.64.38-1.15,3,1.2,5.19,4.08,8.69,3.81l-.07-.08Z"/>
    <path class="cls-2" d="m184.08,77.9c3.09-2.12,5.99-2.91,9.17-2.77.59.03,1.32-.03,1.47.77.18.92-.39,1.34-1.21,1.51-.24.05-.5.02-.74.07-3.25.67-3.98,1.99-2.81,5.18.49,1.32,1.54,2.51.79,4.35-2.25-3.04-3.07-6.81-6.66-9.11Z"/>
    <path class="cls-2" d="m206.71,129.68c1.37,1.95,3.09,1.85,4.11,2.6,1.29.96,2.1,2.71,2.51,4.69-.55-.28-.92-.47-1.32-.68-1.26.74.86,1.98-.5,2.76-2.05-2.52-4.43-4.88-4.81-9.37Z"/>
    <path class="cls-2" d="m136.26,133.48c.07-4.87,2.02-6.88,7.32-7.12-2.68,2.7-5.13,4.76-7.32,7.12Z"/>
    <path class="cls-2" d="m132.05,127.16c2.25-3.63,5.44-5.79,9.78-6.03-2.91,2.53-6.31,4.3-9.78,6.03Z"/>
    <path class="cls-2" d="m198.49,86.83c-3.35,0-6.06-3.34-5-5.9.25-.59.67-1.07,1.36-1.06.69.01,1.44.77,1.27,1.08-1.59,2.86,1.09,4.07,2.37,5.88Z"/>
  </g>
  <g>
    <path class="cls-3" d="m351.92,321.19c-.97.24-1.14.83-1.38,1.42-1.82,4.5-3.65,9-5.52,13.48-.31.74-.38,1.8-1.55,1.88-1.28.09-1.65-.83-2.04-1.79-2.02-4.95-4.07-9.88-6.37-15.45-.51,4.7-.17,8.74-.27,12.77-.03,1.12,0,2.25-.05,3.37-.04,1-.74,1.15-1.56,1.12-.67-.02-1.24-.19-1.33-.97-.06-.49-.07-1-.07-1.49,0-5.61-.02-11.23.02-16.84,0-.91-.39-2.08,1.03-2.45,1.89-.49,3.4.01,4.08,1.53.91,2.05,1.71,4.15,2.58,6.21,1.02,2.41,2.07,4.8,3.12,7.2.09.21.34.34.68.67.9-.85,1.18-2.03,1.63-3.08,1.41-3.33,2.77-6.67,4.16-10.01,1.09-2.6,1.53-2.84,4.15-2.59,1.07.1,1.59.54,1.59,1.62,0,6.24,0,12.48,0,18.72,0,.85-.3,1.43-1.26,1.49-1.08.07-1.63-.38-1.63-1.49,0-3.62-.01-7.24-.02-10.85,0-1.46,0-2.93,0-4.45Z"/>
    <path class="cls-3" d="m431.54,321.22c0,4.22,0,8.43,0,12.65,0,1,0,1.99-.06,2.99-.06.97-.75,1.17-1.57,1.12-.7-.04-1.18-.34-1.24-1.09-.04-.5-.05-.99-.05-1.49,0-5.48-.02-10.96.02-16.44,0-.92-.41-2.07.8-2.63,1.18-.56,3.19-.09,4.04.98.69.88,1.28,1.84,1.9,2.77,2.64,3.93,5.27,7.85,7.9,11.78.34.51.59,1.11,1.6,1.27,0-4.24,0-8.44,0-12.64,0-1,0-1.99.03-2.99.03-.9.54-1.29,1.44-1.3.87,0,1.43.29,1.49,1.23.02.37.03.75.03,1.12,0,5.73.02,11.46-.01,17.19,0,.8.37,1.96-.82,2.16-1.17.2-2.52.56-3.49-.57-.57-.66-1.03-1.4-1.52-2.13-2.57-3.82-5.13-7.65-7.71-11.45-.62-.91-1.34-1.75-2.02-2.62-.25.03-.5.06-.75.09Z"/>
    <path class="cls-3" d="m358,326.82c.08-6.75,4.91-11.41,11.71-11.31,6.42.1,11.31,5.01,11.11,11.56-.23,7.45-4.74,11.35-11.54,11.57-6.52.21-11.36-5.05-11.28-11.82Zm19.64.29c.04-5.11-3.34-8.74-8.14-8.75-4.73,0-8.39,3.72-8.44,8.6-.05,4.87,3.58,8.73,8.27,8.8,4.72.07,8.26-3.62,8.31-8.65Z"/>
    <path class="cls-3" d="m420.06,311.41c-1.73.74-2.66.34-3.06-1.22-.48-1.87-1.71-2.58-3.6-2.35-.74.09-1.5.05-2.24,0-1.98-.11-3.55.04-4.27,2.49-.57,1.93-4.99,2.2-6.24.5-.88-1.2-1.54-2.56-2.3-3.84-.38-.64-.73-1.3-1.18-1.9-.4-.53-.99-.73-1.66-.56-.73.18-.93.76-.94,1.41-.03,1.5-.02,2.99-.06,4.49-.02.67-.28,1.26-1.04,1.28-.77.02-1.07-.55-1.07-1.23-.01-4.61-.01-9.23,0-13.84,0-.92.52-1.34,1.41-1.34,1.75,0,3.5-.09,5.24.03,2.05.14,3.54,1.27,3.87,2.95.38,1.9.31,3.76-1.53,5.03-.6.41-1.45.49-1.78,1.48,1.25,1.99,2.54,4.06,4.19,6.69,1.44-3.18,2.66-5.84,3.86-8.51.92-2.04,1.86-4.08,2.72-6.15.37-.89.84-1.5,1.88-1.5.96,0,1.23.74,1.52,1.41,2.1,4.88,4.19,9.76,6.3,14.67Zm-23.48-8.74c2.43.04,4.03-1,4.13-2.7.11-1.85-1.35-2.88-4.24-3-1.6-.07-1.92.38-1.94,2.7-.03,2.62.21,2.97,2.05,3Zm14.98-3.42c-.79,1.94-1.89,3.9-2.38,6.19q3.28.4,5.64-.32c-.7-1.73-1.39-3.44-2.08-5.16-.14-.35-.32-.65-1.17-.7Z"/>
    <path class="cls-3" d="m400.83,324.82c0,1.99.08,3.98-.02,5.97-.23,4.53-3.78,7.95-8.29,7.86-3.72-.07-8.25-2.51-8.37-7.81-.1-4.23-.03-8.46-.03-12.69,0-.61-.06-1.33.54-1.68.38-.22.95-.28,1.41-.2.72.12.94.74.94,1.4.02,2.98,0,5.97.03,8.95.02,1.49-.01,3,.22,4.46.45,2.83,2.76,4.74,5.39,4.67,2.45-.06,4.62-1.94,5.05-4.62.25-1.58.19-3.22.21-4.83.03-2.86.02-5.72.03-8.58,0-.83.31-1.43,1.26-1.51,1.1-.09,1.61.45,1.62,1.51,0,2.36,0,4.73,0,7.09h.02Z"/>
    <path class="cls-3" d="m451.09,335.63c1.82-1.9,1.85-1.95,3.71-.78,1.74,1.09,3.47,1.21,5.3.33,1.38-.66,2.03-1.74,2.03-3.26,0-1.36-.88-2.01-1.94-2.46-1.71-.72-3.48-1.31-5.19-2.04-4.14-1.75-4.59-7.28-1.27-10.26,2.35-2.11,7.56-2.28,10.16-.34.54.4,1.41.89.68,1.75-.6.7-1.26,1.88-2.4.98-1.16-.92-2.39-1.26-3.81-1.16-1.89.13-3.28,1.18-3.61,2.68-.31,1.43.3,2.69,2.09,3.55,1.44.7,3.06,1.02,4.54,1.64,2.15.91,3.75,2.16,3.92,4.88.3,4.7-2.62,7.08-6.98,7.45-2.75.23-5.44-.46-7.23-2.97Z"/>
    <path class="cls-4" d="m461.82,357.19c.46-3.66.13-7.26.24-10.84.03-.86-.18-1.77.29-2.55.16-.26.6-.49.9-.47.29.02.71.31.81.59.16.45.15.97.15,1.47.01,4.48.02,8.96,0,13.44,0,.81.31,1.87-.83,2.19-1.11.31-2.26.32-3.06-.73-.6-.79-1.12-1.64-1.67-2.46-2.2-3.3-4.39-6.6-6.59-9.9-.35-.52-.7-1.03-1.46-1.16-.88.58-.46,1.52-.48,2.29-.05,3.24.01,6.47-.03,9.71-.01.9.37,2.29-1.16,2.24-1.24-.04-.9-1.27-.91-2.07-.03-4.48-.03-8.96,0-13.44,0-.82-.26-1.88.89-2.17,1.11-.29,2.26-.27,3.05.78.6.79,1.14,1.63,1.68,2.45,2.12,3.21,4.22,6.42,6.34,9.62.33.49.58,1.13,1.84,1.02Z"/>
    <path class="cls-4" d="m385.24,351.81c.7.43,1.24.73,1.75,1.08,2.47,1.7,2.29,6.09-1.14,7.59-2.86,1.25-5.88.61-8.84.58-.77,0-.93-.73-.93-1.37-.01-4.98,0-9.95,0-14.93,0-1.07.54-1.58,1.6-1.57,1.87,0,3.73,0,5.6,0,2.1-.01,3.67,1,4.39,2.86.68,1.77.09,3.41-1.47,4.62-.29.22-.48.56-.95,1.13Zm-7.08,4.09c0,.37-.02.74,0,1.11.13,2.12.54,2.54,2.66,2.63.61.03,1.25.03,1.85-.08,2.1-.38,3.73-1.91,3.81-3.49.08-1.65-1.21-2.8-3.71-3.32-.24-.05-.48-.11-.72-.16-3.41-.62-3.88-.22-3.88,3.3Zm0-8.41c-.04,3.16.36,3.56,3.38,3.3.72-.06,1.47-.22,2.13-.51,1.66-.73,2.16-2.35,1.33-3.99-.66-1.3-2.99-1.93-5.35-1.55-1.86.3-1.37,1.72-1.48,2.76Z"/>
    <path class="cls-3" d="m423.95,299.29c0,3.42.03,6.75-.02,10.08-.01.88.48,2.27-1.05,2.33-1.57.06-1.14-1.34-1.15-2.22-.05-3.99-.03-7.98,0-11.98,0-.8-.34-1.89.91-2.12,1.13-.22,2.18-.19,2.94,1,1.82,2.83,3.74,5.6,5.62,8.39.68,1.01,1.21,2.14,2.68,3.18,0-3.56-.05-6.78.03-10,.02-.96-.59-2.62,1.22-2.48,1.42.11.85,1.58.87,2.46.07,3.62.08,7.24,0,10.85-.02,1,.63,2.41-.87,2.91-1.69.57-2.41-.7-3.19-1.89-1.85-2.81-3.75-5.59-5.67-8.36-.55-.79-.88-1.82-2.32-2.16Z"/>
    <path class="cls-4" d="m331.86,351.9c0-2.23.03-4.47-.01-6.7-.03-1.37.49-2.08,1.94-2.04,2.11.06,4.23-.07,6.33.09,4.14.3,7.08,3.33,7.39,7.44.51,6.77-2.87,10.4-9.78,10.48-1.36.02-2.73-.04-4.1,0-1.26.02-1.78-.58-1.77-1.81.02-2.48,0-4.96,0-7.44Zm2.12.13s-.02,0-.02,0c0,.62,0,1.25,0,1.87.02,6.73-.91,6.23,6.43,5.01,2.8-.47,4.81-3.29,5.01-6.26.22-3.22-1.2-5.86-3.93-6.99-1.86-.76-3.84-1.01-5.86-.86-1.04.08-1.62.54-1.63,1.62,0,1.87,0,3.74,0,5.61Z"/>
    <path class="cls-4" d="m398.53,352.13c0-2.23-.04-4.47.01-6.7.06-2.17.1-2.19,2.4-2.25,1.61-.04,3.23-.04,4.84,0,4.62.14,7.94,3.04,8.39,7.29.61,5.84-1.56,8.77-6.63,10.5-.23.08-.49.11-.73.11-2.48,0-4.95-.03-7.43-.05-1.79-2.17-.43-4.72-.83-7.06-.1-.6-.02-1.24-.02-1.86Zm5.55-7.32c-3.19-.04-3.39.13-3.45,2.81-.04,2.23-.03,4.46-.01,6.69.05,5.84-.75,5.81,5.65,4.78,2.72-.44,4.62-2.07,5.46-4.47.87-2.51.56-5.12-1.31-7.33-1.79-2.12-4.28-2.23-6.33-2.48Z"/>
    <path class="cls-3" d="m439.64,303.62c0-2.24.03-4.47-.01-6.71-.03-1.37.75-1.65,1.89-1.63,1.62.03,3.24-.07,4.85.02,3.74.2,6.89,3.03,7.48,6.61.66,4.03-1.23,7.57-4.84,9.12-2.63,1.13-5.38.73-8.1.76-.93,0-1.27-.6-1.27-1.46,0-2.24,0-4.47,0-6.71h0Zm5.12-6.24c-2.79-.04-2.84,0-2.88,2.89-.03,2.24-.04,4.48,0,6.71.04,2.53.07,2.54,2.4,2.59.5.01,1,.02,1.49-.01,2.59-.18,4.51-1.39,5.44-3.84.92-2.43.28-4.63-1.35-6.58-1.35-1.61-3.21-1.73-5.1-1.76Z"/>
    <path class="cls-3" d="m388.69,307.08c.01,4.14,0,4.11-4.21,4.86-1.36.24-2.63.37-4.03.04-3.69-.86-6.18-2.94-6.67-6.13-.55-3.59-.18-7.01,3.04-9.4,2.8-2.08,7.42-2.24,10.25-.44.56.36,1.04.75.58,1.46-.35.54-.85.92-1.56.63-.69-.28-1.33-.69-2.04-.91-2.74-.88-5.62.16-7.17,2.55-1.58,2.43-1.22,6.18.78,8.28,2.15,2.25,5.37,2.86,7.84,1.45,1.56-.89.83-2.41.9-3.67.06-1.17-.83-1.34-1.78-1.39-.48-.02-.96-.14-1.41-.3-.16-.06-.3-.39-.29-.59.01-.2.18-.52.35-.56,1.58-.45,3.19-.38,4.77-.08.49.09.64.7.64,1.22,0,.99,0,1.99,0,2.98Z"/>
    <path class="cls-4" d="m355.89,360.86c2.46-5.6,4.77-11.06,7.25-16.44.82-1.78,2.46-1.73,3.32.09,1.54,3.25,2.93,6.57,4.28,9.9.86,2.13,2.26,4.08,2.47,6.49-1.89.72-2.64-.41-2.97-1.84-.46-1.97-1.64-2.62-3.52-2.46-.86.08-1.75.09-2.61,0-2.62-.29-4.71.17-5.32,3.21-.25,1.24-1.12,1.52-2.89,1.05Zm8.58-14.76c-.98,2.42-1.78,4.35-2.54,6.3-.93,2.38-.73,2.67,1.91,2.76.74.03,1.49.03,2.23-.04,1.66-.15,2.11-.64,1.61-2.09-.75-2.19-1.4-4.46-3.21-6.93Z"/>
    <path class="cls-4" d="m445.28,360.8c-1.43.66-2.34.33-2.66-1.08-.62-2.78-2.49-3.42-5.01-3.13-.86.1-1.74.08-2.61.01-1.96-.15-3.37.33-3.84,2.55-.31,1.47-1.19,2.49-3.1,1.68,2.29-5.37,4.55-10.7,6.84-16.02.34-.8.75-1.58,1.85-1.57,1.01.01,1.6.54,1.96,1.42,2.06,4.92,4.12,9.84,6.17,14.76.18.43.26.9.4,1.38Zm-8.28-14.55c-1.46,1.6-1.98,3.25-2.6,4.81-1.58,3.98-1.37,4.24,2.99,4.09,2.87-.1,3.03-.31,2.02-2.9-.74-1.9-1.52-3.79-2.41-6Z"/>
    <path class="cls-3" d="m408.34,325.9c0,2.49.02,4.97,0,7.46-.01,1.23.54,1.83,1.78,1.82,2.11,0,4.23-.01,6.34.02.96.01,2.08-.2,2.17,1.32.09,1.52-.94,1.5-1.97,1.5-3.11,0-6.22-.04-9.33.02-1.46.03-1.95-.61-1.94-2.01.04-5.97.02-11.94.02-17.9,0-.12,0-.25,0-.37,0-1.08.5-1.61,1.6-1.55.94.05,1.27.65,1.28,1.49.01,2.73,0,5.47,0,8.2.01,0,.02,0,.04,0Z"/>
    <path class="cls-3" d="m342.34,304.19c0-2.87,0-5.11,0-7.35,0-.82.24-1.51,1.2-1.52,2.73-.02,5.47,0,8.21.03.53,0,.98.25,1.02.85.05.78-.46,1.1-1.15,1.12-1.74.04-3.48.08-5.22.05-1.87-.03-1.84,1.21-1.82,2.51.04,2.08.14,2.26,1.97,2.35,1.61.08,3.23.02,4.84.11.68.04,1.15.52,1.02,1.26-.1.59-.65.69-1.15.7-1.62.03-3.23.06-4.85.04-1.21-.02-1.9.41-1.83,1.72.03.5.03,1-.01,1.49-.11,1.38.4,2.08,1.89,2.03,1.86-.06,3.73,0,5.6,0,.83,0,1.48.22,1.37,1.26-.08.81-.66.95-1.32.97-.5.01-1,.06-1.49,0-2.68-.25-5.42.56-8.04-.49-.59-2.57-.07-5.18-.24-7.13Z"/>
    <path class="cls-3" d="m420.22,326.73c0-3.1.06-6.2-.02-9.3-.04-1.51.62-1.9,2-1.9,1.3,0,1.72.54,1.72,1.78-.03,6.57-.04,13.14,0,19.71,0,1.32-.57,1.72-1.8,1.7-1.12-.02-1.93-.18-1.91-1.58.04-3.47.01-6.94.01-10.41Z"/>
    <path class="cls-3" d="m359.84,312.31c-1.23-.23-2.71-.42-3.99-1.29-.42-.28-.83-.63-.61-1.19.24-.62.74-1.14,1.41-.98.83.19,1.61.61,2.4.96,1.17.52,2.21.18,3.16-.49,1.31-.93,1.35-2.4.15-3.48-.96-.86-2.21-1.11-3.35-1.61-3.01-1.3-4.33-3.38-3.64-5.68.74-2.47,3.28-4.06,6.19-3.74.97.11,1.94.45,2.85.83.53.22,1.16.64.63,1.41-.36.51-.83,1.08-1.48.93-.71-.16-1.32-.72-2.03-.92-1.47-.41-3,.27-3.49,1.42-.53,1.25.05,2.54,1.59,3.32.77.39,1.63.62,2.43.95,3.01,1.24,3.93,2.65,3.52,5.34-.35,2.27-2.75,4.11-5.74,4.22Z"/>
    <path class="cls-3" d="m461.49,294.76c1.15.05,2.48.3,3.68,1.02.45.27.73.73.46,1.24-.29.54-.7,1.17-1.41.98-.7-.19-1.29-.76-1.99-.96-1.57-.45-3.26.35-3.72,1.66-.42,1.19.27,2.47,1.87,3.2,1.12.52,2.37.79,3.45,1.37,3.16,1.69,3.45,5.48.64,7.68-2.03,1.59-5.92,1.62-8.03.03-.44-.33-1.14-.71-.58-1.45.38-.5.93-.93,1.59-.7.81.28,1.57.73,2.36,1.08,1.02.45,1.95.16,2.8-.46,1.53-1.1,1.54-3.03-.08-3.98-1.06-.62-2.31-.9-3.42-1.43-2.73-1.29-3.63-3.07-2.97-5.67.5-1.98,2.71-3.53,5.36-3.6Z"/>
    <path class="cls-4" d="m394.56,352.59c0,2.61,0,5.23,0,7.84,0,.92-.39,1.35-1.33,1.35-.93,0-1.35-.41-1.35-1.34,0-5.47,0-10.95,0-16.42,0-.91.4-1.36,1.34-1.36.93,0,1.35.42,1.35,1.34,0,2.86,0,5.72,0,8.58Z"/>
    <path class="cls-4" d="m425.97,350.69c0,1.99.18,4-.04,5.97-.39,3.5-2.89,5.54-6.04,5.16-1.72-.21-3.04-1.03-3.72-2.7-.16-.38-.11-.73.14-1.03.36-.43.87-.54,1.33-.27.42.24.71.68,1.11.97,2.02,1.47,3.73.97,4.75-1.29.43-.95.4-1.94.4-2.93,0-2.49,0-4.98,0-7.47,0-.62-.03-1.25.01-1.87.06-.83-.12-1.95,1.18-1.87,1.01.06.92,1,.93,1.73.02,1.87,0,3.73,0,5.6-.02,0-.04,0-.06,0Z"/>
    <path class="cls-3" d="m331,303.49c0-2.36-.01-4.71.01-7.07,0-.51.21-.97.84-1.02.74-.05,1.2.3,1.21,1.04.04,3.1.03,6.2.05,9.3.02,4.09-.31,3.81,3.82,3.83.99,0,1.99,0,2.97.08.57.04.82.48.82,1.03,0,.54-.24,1.04-.8,1.05-2.6.05-5.21.07-7.81.03-.96-.01-1.14-.77-1.14-1.57,0-2.23,0-4.46,0-6.7.01,0,.02,0,.04,0Z"/>
    <path class="cls-4" d="m353.95,343.37c-.6,1.96-.86,3.69-1.82,5.17-.19.3-.55.56-.95.39-.19-.08-.47-.37-.44-.5.42-1.75.19-3.75,1.81-5.04.22-.17.69-.02,1.4-.02Z"/>
  </g>
</svg>