<svg xmlns="http://www.w3.org/2000/svg" width="403" height="354" viewBox="0 0 403 354" version="1.1"><path d="M 208.897 11.501 C 204.278 21.942, 205.527 32.533, 212.074 38.448 C 217.868 43.683, 222.684 44.597, 233 42.419 C 237.675 41.432, 244.236 40.449, 247.581 40.234 C 253.003 39.887, 254.003 40.131, 256.812 42.495 C 262.834 47.562, 263.317 58.181, 257.715 62.363 C 255.250 64.204, 252.932 64.496, 235.730 65.130 C 211.453 66.026, 197.612 68.935, 186.418 75.495 C 178.542 80.111, 175.855 83.164, 171.278 92.696 C 168.822 97.813, 166.434 102, 165.973 102 C 165.512 102, 164.856 102.878, 164.516 103.950 C 164.175 105.023, 162.232 106.926, 160.198 108.179 C 155.026 111.366, 152.138 114.696, 149.513 120.500 C 146.919 126.232, 142.842 130.291, 135 134.947 C 131.975 136.743, 128.268 139.369, 126.762 140.782 L 124.023 143.352 134.012 152.963 C 139.505 158.250, 144 163.334, 144 164.262 C 144 165.190, 142.739 166.601, 141.198 167.398 C 132.020 172.144, 116.948 197.455, 113.979 213.108 C 112.228 222.346, 112.785 232.928, 115.500 242 C 119.389 254.992, 119.066 257.181, 111.925 266.214 C 108.383 270.695, 106.111 276.445, 107.381 277.714 C 107.695 278.028, 110.665 277.296, 113.981 276.087 C 117.298 274.878, 120.398 274.128, 120.871 274.420 C 121.345 274.713, 121.515 276.088, 121.249 277.476 C 120.954 279.022, 121.224 280, 121.948 280 C 123.566 280, 130.608 295.520, 132.978 304.311 C 135.974 315.420, 138.225 330.100, 137.570 334.247 C 137.244 336.308, 135.857 340.527, 134.489 343.622 C 130.196 353.328, 130.776 354.045, 142.832 353.921 C 151.283 353.834, 151.325 353.470, 142.991 352.535 C 134.462 351.577, 134.195 351.185, 137.326 344.208 C 139.276 339.863, 140 336.607, 140 332.184 C 140 328.848, 139.604 325.873, 139.121 325.575 C 138.024 324.897, 140.377 313.223, 141.921 311.679 C 142.760 310.840, 143.583 310.883, 145.122 311.844 C 146.262 312.556, 147.370 312.964, 147.583 312.750 C 147.797 312.536, 145.039 307.944, 141.455 302.545 C 137.870 297.147, 135.157 292.509, 135.426 292.240 C 135.695 291.971, 137.282 292.901, 138.952 294.306 C 142.084 296.941, 145.773 298.560, 146.649 297.684 C 147.841 296.492, 143.505 290.615, 139.275 287.689 C 136.739 285.935, 133.503 283.476, 132.082 282.224 L 129.500 279.949 138 280.587 C 145.913 281.181, 146.390 281.110, 144.910 279.558 C 144.035 278.641, 140.212 277.241, 136.414 276.446 C 131.115 275.338, 128.855 274.303, 126.703 272.001 C 123.305 268.365, 119.683 268.116, 113.710 271.110 C 108.729 273.607, 109.533 272.723, 117 267.499 C 126.569 260.802, 127.120 260.136, 125.575 257.116 C 124.839 255.677, 123.916 252.475, 123.524 250 C 123.131 247.525, 121.897 241.912, 120.781 237.527 C 117.025 222.775, 119.527 206.475, 127.167 195.929 C 130.117 191.856, 130.337 191.741, 131.674 193.568 C 133.742 196.397, 134.966 193.864, 134.985 186.718 C 135.001 180.512, 137.306 173.453, 138.979 174.487 C 139.541 174.834, 140 176.130, 140 177.368 C 140 178.605, 140.661 180.491, 141.468 181.559 C 142.865 183.406, 142.939 183.355, 142.984 180.500 C 143.009 178.850, 143.361 177.049, 143.765 176.499 C 144.169 175.948, 148.639 174.438, 153.699 173.143 L 162.897 170.788 172.319 173.060 L 181.741 175.331 179.650 179.916 C 176.880 185.989, 176.731 200.089, 179.356 207.738 C 180.344 210.619, 181.466 213.170, 181.849 213.406 C 182.231 213.643, 182.372 209.189, 182.162 203.508 C 181.626 189.035, 184.451 181.242, 191.570 177.548 C 193.930 176.324, 194.588 176.339, 196.611 177.664 C 198.194 178.702, 200.702 179.079, 204.459 178.844 C 209.782 178.512, 210.018 178.605, 210.995 181.411 C 211.552 183.012, 213.159 185.831, 214.566 187.675 C 217.524 191.554, 227.769 199.565, 228.647 198.686 C 228.974 198.360, 227.890 196.384, 226.239 194.296 C 224.587 192.208, 221.785 188.036, 220.010 185.023 L 216.785 179.547 221.468 183.864 C 224.044 186.239, 226.379 187.955, 226.656 187.677 C 226.933 187.400, 226.111 185.312, 224.830 183.036 L 222.500 178.897 224.995 176.840 C 227.109 175.097, 228.332 174.880, 232.995 175.420 C 236.023 175.770, 241.007 176.756, 244.070 177.610 L 249.641 179.163 252.432 187.831 C 255.373 196.964, 260.684 208, 262.139 208 C 262.613 208, 263.028 206.762, 263.063 205.250 C 263.113 203.052, 263.839 203.972, 266.678 209.832 C 270.763 218.263, 275.945 224, 279.474 224 C 280.799 224, 282.148 224.430, 282.473 224.956 C 282.798 225.482, 283.725 225.659, 284.532 225.349 C 285.434 225.003, 286 225.384, 286 226.336 C 286 227.189, 287 228.587, 288.223 229.443 C 290.238 230.855, 290.269 231, 288.551 231 C 287.510 231, 285.835 230.255, 284.829 229.345 C 283.114 227.793, 283 227.817, 283 229.738 C 283 232.175, 284.792 233, 290.082 233 C 294.060 233, 295.445 231.524, 292.250 230.689 C 290.583 230.254, 290.583 230.226, 292.250 230.116 C 293.212 230.052, 294 229.498, 294 228.883 C 294 228.269, 293.164 227.985, 292.142 228.253 C 290.073 228.794, 287 227.418, 287 225.950 C 287 224.198, 291.669 224.977, 293.536 227.040 C 294.552 228.162, 298.160 230.406, 301.555 232.026 C 305.068 233.703, 311.471 238.316, 316.419 242.736 C 330 254.865, 335.840 259.389, 345 264.875 C 349.675 267.675, 354.048 270.311, 354.717 270.733 C 355.528 271.244, 352.754 274.175, 346.421 279.500 C 335.386 288.779, 331.098 291.236, 326.683 290.808 C 323.737 290.523, 323.274 289.941, 320.461 283 C 316.045 272.105, 315.382 271.180, 311.163 270.044 C 307.305 269.005, 302.508 265.894, 289.005 255.673 C 280.564 249.284, 276.739 248.072, 281.935 253.433 L 285.262 256.866 277.881 256.333 C 273.489 256.016, 265.931 256.448, 259.216 257.400 C 253.009 258.280, 247.079 259, 246.037 259 C 242.475 259, 241 256.262, 241 249.651 C 241 243.454, 241.868 241.282, 246.240 236.534 C 248.566 234.009, 251 225.809, 251 220.500 C 251 214.694, 248.498 207.040, 245.443 203.500 C 242.616 200.223, 242.616 200.082, 245.421 210 C 247.502 217.360, 247.431 225.647, 245.248 229.940 C 244.287 231.833, 242.973 233.546, 242.329 233.747 C 240.040 234.464, 234.929 228.396, 232.014 221.500 C 228.102 212.248, 228.092 215.992, 231.987 231.561 C 233.630 238.127, 234.966 244.175, 234.956 245 C 234.946 245.825, 232.251 241.100, 228.968 234.500 C 225.685 227.900, 223.270 223.850, 223.601 225.500 C 225.348 234.199, 225.215 239.218, 223.163 241.993 L 221.127 244.747 224.762 247.124 C 229.734 250.374, 230.563 254.100, 228.851 265.500 C 228.108 270.450, 227.546 280.575, 227.603 288 C 227.745 306.521, 230.268 320.104, 237.572 341.668 C 238.907 345.610, 240 349.275, 240 349.812 C 240 350.348, 235.838 351.461, 230.750 352.284 L 221.500 353.780 232.250 353.890 C 244.867 354.019, 244.557 354.461, 240.581 342 C 237.372 331.942, 234.849 316.861, 235.144 309.500 C 235.311 305.333, 234.737 301.793, 233.267 297.911 C 231.393 292.967, 231.213 290.948, 231.703 280.411 C 232.316 267.245, 233.936 261.378, 236.669 262.427 C 237.594 262.781, 249.409 263.499, 262.925 264.021 C 289.930 265.064, 296.856 266.207, 306.136 271.153 C 312.428 274.507, 315.258 277.620, 319.338 285.676 C 324.565 295.998, 328.769 298.240, 335.943 294.529 C 340.516 292.165, 360.134 272.933, 359.791 271.151 C 359.523 269.762, 348.508 260.946, 345 259.314 C 344.175 258.931, 339.393 255.590, 334.372 251.891 C 327.267 246.655, 324.420 243.808, 321.525 239.042 C 317.107 231.768, 314.141 229.522, 310.041 230.342 C 307.666 230.817, 306.298 230.255, 302.885 227.404 C 297.056 222.534, 293.762 221, 289.131 221 C 283.085 221, 282.008 220.204, 279.006 213.514 C 276.741 208.465, 275.384 206.829, 271.646 204.639 C 269.126 203.162, 265.777 200.051, 264.205 197.727 C 259.499 190.771, 255.202 182.660, 254.840 180.051 C 254.340 176.446, 259.085 175.775, 269.595 177.965 C 274.218 178.928, 278 179.519, 278 179.278 C 278 179.038, 274.902 174.714, 271.116 169.670 C 264.188 160.441, 259.412 152.255, 260.386 151.281 C 260.675 150.992, 265.861 152.610, 271.910 154.878 C 277.960 157.145, 284.326 159, 286.058 159 L 289.207 159 285.923 155.259 C 284.117 153.202, 280.728 147.429, 278.392 142.431 C 276.056 137.433, 272.531 131.229, 270.559 128.645 L 266.972 123.946 268.986 121.785 C 271.783 118.782, 271.504 116.432, 268.047 113.876 L 265.093 111.693 269.581 108.846 C 272.050 107.281, 274.312 106, 274.609 106 C 276.678 106, 297.887 90.132, 304 84.011 C 311.275 76.726, 311.417 76.490, 308.745 76.183 C 307.194 76.005, 302.550 77.354, 298.113 79.272 L 290.234 82.678 293.629 77.954 C 303.790 63.810, 300.953 43.890, 286.864 30.451 C 276.704 20.760, 264.456 17.230, 252.032 20.413 C 248.537 21.309, 241.644 23.832, 236.713 26.021 C 226.969 30.345, 223.637 30.835, 220.223 28.443 C 217.383 26.455, 217.294 21.787, 220 16.739 C 221.100 14.686, 222 12.788, 222 12.520 C 222 12.001, 212.468 7, 211.477 7 C 211.153 7, 209.992 9.025, 208.897 11.501 M 210.685 14.534 C 208.241 19.659, 208.492 26.957, 211.250 31.010 C 216.767 39.116, 223.964 40.553, 241.375 37.027 C 253.925 34.485, 257.608 34.839, 262.403 39.049 C 264.252 40.672, 266.288 42, 266.927 42 C 267.730 42, 267.873 43.163, 267.388 45.750 C 266.745 49.184, 266.828 49.383, 268.367 48.107 C 270.656 46.211, 271.574 47.444, 270.170 50.527 C 269.103 52.868, 269.162 52.983, 270.946 52.029 C 273.744 50.531, 274.308 52.339, 271.970 55.311 L 269.968 57.857 272.004 58.178 C 274.017 58.496, 274.014 58.539, 271.771 61.719 C 269.455 65.003, 263.284 68.239, 257 69.466 C 249.651 70.901, 249.724 70.836, 250.379 75.353 L 250.981 79.500 247.357 75.500 L 243.733 71.500 244.320 76.750 C 245.033 83.143, 243.632 83.630, 241.059 77.883 L 239.216 73.766 238.156 78.709 C 237.573 81.427, 237.368 84.690, 237.700 85.959 C 238.500 89.022, 236.002 88.280, 234.204 84.921 C 232.911 82.504, 233.120 75.406, 234.597 71.590 C 235.308 69.753, 234.877 69.707, 223.232 70.365 C 211.046 71.054, 198.708 73.548, 193.072 76.463 C 187.701 79.240, 183.037 84.088, 178.715 91.385 C 176.397 95.298, 170.529 102.673, 165.676 107.774 C 159.359 114.414, 156.027 118.868, 153.946 123.458 C 150.619 130.797, 147.630 133.387, 137.747 137.495 C 127.481 141.763, 127.464 141.897, 136.081 150.638 C 149.073 163.817, 154.658 166.500, 163.032 163.585 C 169.931 161.183, 172.498 161.611, 184.418 167.151 C 197.936 173.434, 203.467 174.096, 220.680 171.494 C 234.848 169.352, 250.347 169.897, 262.897 172.978 C 267.515 174.112, 271.420 174.914, 271.574 174.759 C 271.963 174.371, 255.469 152.284, 250.124 146.036 L 245.747 140.920 249.282 141.158 C 254.283 141.495, 255.641 139.900, 256.271 132.947 C 256.703 128.188, 257.579 125.806, 260.409 121.696 C 265.401 114.449, 265.212 113, 259.277 113 C 253.647 113, 254.005 112.653, 266.500 105.993 C 283.157 97.115, 290.625 92.322, 296.469 86.759 L 302.500 81.018 290.500 87.031 C 281.328 91.626, 276.239 93.497, 268.908 94.966 C 263.633 96.024, 257.483 97.623, 255.243 98.519 C 250.979 100.226, 245.386 100.214, 245.660 98.500 C 245.748 97.950, 247.773 97.118, 250.160 96.651 C 255.431 95.619, 257.151 94.334, 256.939 91.586 C 256.667 88.049, 256.890 87.985, 260.640 90.530 C 265.036 93.513, 268.498 93.651, 272.500 91 C 274.150 89.907, 275.065 89.010, 274.534 89.007 C 274.003 89.003, 275.880 86.638, 278.705 83.750 C 282.051 80.330, 284.210 77.097, 284.899 74.474 C 285.481 72.259, 287.091 68.909, 288.478 67.029 C 292.136 62.071, 291.886 56.278, 287.633 47.472 C 283.604 39.129, 277.282 31.725, 271.628 28.728 C 268.020 26.816, 265.988 26.548, 255.500 26.599 L 243.500 26.658 235.053 30.829 C 230.407 33.123, 225.547 35, 224.253 35 C 221.097 35, 216.299 32.428, 215.030 30.055 C 213.521 27.236, 213.785 19.935, 215.517 16.615 C 216.652 14.439, 216.743 13.395, 215.888 12.365 C 214.036 10.134, 212.473 10.786, 210.685 14.534 M 193.458 87.750 C 194.071 90.250, 194.008 90.333, 192.764 88.661 C 191.484 86.939, 191.216 87.081, 188.595 90.863 C 185.361 95.529, 175.624 105, 174.060 105 C 173.477 105, 173 105.498, 173 106.107 C 173 106.730, 173.730 106.934, 174.670 106.573 C 175.589 106.221, 176.667 106.461, 177.066 107.107 C 177.465 107.753, 179.526 108.578, 181.646 108.941 L 185.500 109.601 180 111.423 C 176.975 112.426, 174.050 113.671, 173.500 114.190 C 172.137 115.478, 175.671 118, 178.839 118 C 181.191 118, 181.154 118.096, 177.972 120.250 C 176.145 121.487, 174.841 122.950, 175.075 123.500 C 175.318 124.073, 179.816 124.500, 185.598 124.500 L 195.695 124.500 198.509 127.836 C 201.727 131.651, 203.920 132.659, 213 134.497 C 216.575 135.220, 218.262 135.854, 216.750 135.906 C 209.570 136.151, 217.988 141.130, 233 145.515 C 238.225 147.042, 244.450 149.125, 246.833 150.145 C 249.216 151.165, 251.449 152, 251.795 152 C 252.142 152, 250.192 149.697, 247.462 146.883 C 242.321 141.581, 230.734 132.513, 225.500 129.695 L 222.500 128.080 225.823 128.040 C 231.261 127.975, 229.587 124.852, 222.991 122.755 C 218.369 121.285, 217.050 120.296, 214.658 116.505 C 212.352 112.849, 211.268 112, 208.908 112 C 205.681 112, 205.440 111.190, 207.210 106.295 C 207.990 104.138, 208.909 103.135, 209.792 103.474 C 210.546 103.763, 212.008 104, 213.040 104 C 214.072 104, 216.809 105.801, 219.123 108.002 C 225.304 113.882, 225.682 111.621, 220.012 102.679 L 217.044 98 208.980 98 L 200.916 98 198 91.500 C 195.030 84.880, 192.176 82.524, 193.458 87.750 M 217.250 87.491 C 213.765 89.005, 213.102 90.441, 215.466 91.349 C 216.273 91.658, 218.341 94.406, 220.062 97.456 C 221.783 100.505, 223.628 103.270, 224.162 103.600 C 225.931 104.694, 226.183 103.209, 224.630 100.837 C 223.789 99.552, 222.796 96.588, 222.423 94.250 C 221.750 90.038, 221.772 90, 224.765 90 C 227.568 90, 229.646 87.980, 228.264 86.598 C 227.182 85.515, 220.561 86.052, 217.250 87.491 M 225.744 93.870 C 225.027 96.611, 228.502 102, 230.985 102 C 233.391 102, 233.585 100.730, 231.450 98.958 C 230.588 98.243, 230.033 96.524, 230.200 95.086 C 230.431 93.095, 230.013 92.430, 228.380 92.198 C 226.956 91.994, 226.091 92.543, 225.744 93.870 M 145.500 139.713 C 142.199 140.507, 141.334 142, 144.175 142 C 148.410 142, 153.006 140.818, 152.425 139.878 C 151.858 138.962, 148.916 138.891, 145.500 139.713 M 157.578 144.485 C 153.791 145.835, 147.097 151.431, 148.087 152.420 C 148.531 152.865, 162.065 145.268, 163.647 143.687 C 164.746 142.588, 161.825 142.972, 157.578 144.485 M 182.476 151.402 C 180.421 156.321, 179.488 163, 180.856 163 C 181.468 163, 183.370 161.748, 185.083 160.218 C 187.483 158.073, 188.318 156.354, 188.728 152.718 C 189.245 148.135, 189.183 148, 186.579 148 C 184.475 148, 183.592 148.732, 182.476 151.402 M 158.302 151.012 C 155.817 152.013, 153 156.819, 153 160.058 C 153 161.835, 153.840 161.288, 157.750 156.965 C 160.363 154.077, 162.650 151.328, 162.833 150.857 C 163.251 149.783, 161.178 149.854, 158.302 151.012 M 234 153.850 C 234 155.915, 239.844 164.489, 240.681 163.652 C 241.211 163.122, 235.242 152, 234.427 152 C 234.192 152, 234 152.832, 234 153.850 M 217.200 154.200 C 215.322 156.078, 215.778 159.209, 218.519 163.243 C 225.259 173.162, 228.508 168.066, 222.340 157.250 C 219.751 152.711, 219.084 152.316, 217.200 154.200 M 242.547 157.250 C 243.481 160.335, 246.677 165.489, 248.678 167.138 C 250.170 168.367, 250.264 168.207, 249.635 165.500 C 249.148 163.400, 249.232 162.941, 249.915 163.971 C 250.452 164.780, 251.192 165.141, 251.560 164.774 C 252.637 163.696, 247.903 156.823, 246.463 157.376 C 245.750 157.650, 244.917 157.227, 244.614 156.437 C 243.687 154.021, 241.794 154.765, 242.547 157.250 M 251.535 160.250 C 252.249 162.646, 256.648 167.696, 257.369 166.947 C 258.252 166.030, 253.721 158, 252.322 158 C 251.279 158, 251.056 158.640, 251.535 160.250 M 257 160.953 C 257 163.424, 259.052 168, 260.161 168 C 261.364 168, 261.206 166.737, 259.487 162.622 C 257.795 158.575, 257 158.041, 257 160.953 M 195.195 184.529 C 195.486 184.819, 199.456 186.862, 204.018 189.068 C 214.554 194.163, 219.059 197.751, 222.086 203.455 C 224.487 207.982, 226 209.217, 226 206.650 C 226 204.945, 220.623 197.473, 217.141 194.340 C 213.926 191.448, 199.067 184, 196.510 184 C 195.496 184, 194.904 184.238, 195.195 184.529 M 199.211 189.395 C 199.920 190.162, 200.758 190.635, 201.074 190.445 C 202.011 189.881, 211.282 196.748, 214.229 200.189 C 215.730 201.941, 217.228 203.105, 217.557 202.776 C 218.789 201.544, 210.408 193.730, 204.839 190.918 C 198.359 187.648, 197.341 187.372, 199.211 189.395 M 279.032 231.095 C 279.014 231.972, 279.930 233.532, 281.068 234.561 C 283.634 236.884, 294.157 237.278, 296.198 235.128 C 297.295 233.972, 296.731 233.837, 292.617 234.270 C 286.846 234.878, 282.300 233.766, 280.420 231.288 C 279.255 229.753, 279.059 229.725, 279.032 231.095 M 164 233.483 C 164 234.299, 166.665 240.937, 169.922 248.233 C 173.179 255.530, 176.375 263.525, 177.025 266 C 177.675 268.475, 178.710 270.813, 179.325 271.196 C 179.939 271.578, 180.151 272.182, 179.796 272.537 C 179.166 273.167, 178.057 271.621, 170.625 259.750 C 168.645 256.587, 166.581 254, 166.038 254 C 165.495 254, 166.671 257.488, 168.651 261.750 C 174.684 274.736, 176.127 279.131, 176.734 286.367 C 177.374 293.999, 176.073 294.873, 173.952 288.236 C 172.099 282.436, 170.702 281.768, 171.368 287 C 172.855 298.679, 173.219 308.747, 172.177 309.390 C 171.516 309.799, 170.670 308.488, 170.008 306.030 C 169.411 303.814, 168.542 302, 168.077 302 C 166.958 302, 165.878 310.986, 166.094 318.500 C 166.216 322.733, 165.659 325.825, 164.203 329 C 163.069 331.475, 161.408 337.100, 160.514 341.500 C 159.620 345.900, 158.680 350.512, 158.425 351.750 C 158.106 353.299, 158.435 354, 159.481 354 C 160.316 354, 161.037 353.663, 161.082 353.250 C 161.128 352.837, 161.317 350.658, 161.504 348.406 C 161.927 343.295, 163.967 338.355, 168.872 330.569 C 173.319 323.511, 174.634 319.760, 175.560 311.500 C 175.957 307.960, 176.966 304.680, 178.021 303.500 C 179.004 302.400, 180.503 299.813, 181.353 297.750 C 183.267 293.105, 186.216 292.788, 190.660 296.750 C 195.008 300.627, 199.635 314.238, 200.578 325.930 C 201.200 333.643, 202.975 349.033, 203.557 351.750 C 203.944 353.559, 204.672 353.973, 207.269 353.864 C 209.357 353.776, 209.755 353.581, 208.394 353.313 C 206.525 352.945, 206.217 351.980, 205.650 344.699 C 205.299 340.190, 205.009 333.318, 205.006 329.429 C 205.002 324.434, 204.427 321.203, 203.048 318.429 C 201.268 314.845, 198.664 307.033, 189.766 278.583 C 188.060 273.128, 184.715 264.660, 182.332 259.764 C 177.231 249.283, 176.946 247.519, 180.500 248.411 C 181.875 248.756, 183 248.648, 183 248.171 C 183 246.392, 166.621 232, 164.596 232 C 164.268 232, 164 232.667, 164 233.483 M 211.173 250.484 C 203.014 253.030, 196.974 258.658, 193.285 267.150 C 191.276 271.775, 193.202 271.173, 196.612 266.110 C 202.536 257.314, 209.883 253, 218.943 253 C 222.407 253, 222.946 251.577, 220.066 250.035 C 217.653 248.744, 216.574 248.799, 211.173 250.484 M 205.447 261.250 C 201.258 264.099, 196.303 270.636, 197.457 271.790 C 197.682 272.016, 199.479 270.588, 201.449 268.617 C 206.540 263.527, 210.600 261.722, 217.232 261.603 C 223.253 261.495, 224.323 260.779, 221.066 259.035 C 217.044 256.883, 210.505 257.810, 205.447 261.250 M 206.400 268.400 C 204.530 270.270, 203 272.552, 203 273.471 C 203 274.657, 203.979 274.105, 206.368 271.571 C 209.575 268.171, 211.884 267.402, 217.250 267.948 C 219.432 268.170, 219.557 266.428, 217.418 265.607 C 213.485 264.098, 209.757 265.043, 206.400 268.400 M 86 351.898 L 80.500 353.795 101 353.827 C 120.546 353.858, 121.314 353.787, 117.500 352.310 C 115.076 351.372, 109.165 350.612, 102.500 350.381 C 93.588 350.073, 90.456 350.361, 86 351.898" stroke="none" fill="#5f3d21" fill-rule="evenodd"/><path d="M 152.500 108.519 C 139.876 115.475, 131.295 121.908, 121.521 131.745 C 102.163 151.226, 89.113 176.212, 84.564 202.500 C 82.536 214.219, 82.536 236.781, 84.564 248.500 C 87.878 267.654, 96.970 288.953, 108.471 304.504 C 114.061 312.063, 123.783 322.307, 132.750 330.086 C 137.946 334.594, 138 334.614, 138 331.995 C 138 328.162, 134.329 308.423, 132.433 302.066 C 130.099 294.235, 123.334 280, 121.948 280 C 121.224 280, 120.954 279.022, 121.249 277.476 C 121.515 276.088, 121.345 274.713, 120.871 274.420 C 120.398 274.128, 117.298 274.878, 113.981 276.087 C 110.665 277.296, 107.695 278.028, 107.381 277.714 C 106.111 276.445, 108.383 270.695, 111.925 266.214 C 119.066 257.181, 119.389 254.992, 115.500 242 C 112.785 232.928, 112.228 222.346, 113.979 213.108 C 116.948 197.455, 132.020 172.144, 141.198 167.398 C 142.739 166.601, 144 165.190, 144 164.262 C 144 163.334, 139.505 158.250, 134.012 152.963 L 124.023 143.352 126.762 140.782 C 128.268 139.369, 131.975 136.743, 135 134.947 C 142.842 130.291, 146.919 126.232, 149.513 120.500 C 152.132 114.710, 155.026 111.366, 160.151 108.209 C 163.898 105.900, 165.888 102.997, 163.719 103.004 C 163.048 103.007, 158 105.488, 152.500 108.519 M 269.295 108.923 L 265.089 111.690 268.045 113.875 C 271.504 116.432, 271.783 118.782, 268.986 121.785 L 266.972 123.946 270.559 128.645 C 272.531 131.229, 276.056 137.433, 278.392 142.431 C 280.728 147.429, 284.117 153.202, 285.923 155.259 L 289.207 159 286.058 159 C 284.326 159, 277.960 157.145, 271.910 154.878 C 265.861 152.610, 260.675 150.992, 260.386 151.281 C 259.412 152.255, 264.188 160.441, 271.116 169.670 C 274.902 174.714, 278 179.038, 278 179.278 C 278 179.519, 274.218 178.928, 269.595 177.965 C 259.085 175.775, 254.340 176.446, 254.840 180.051 C 255.202 182.660, 259.499 190.771, 264.205 197.727 C 265.777 200.051, 269.126 203.162, 271.646 204.639 C 275.384 206.829, 276.741 208.465, 279.006 213.514 C 282.008 220.204, 283.085 221, 289.131 221 C 293.762 221, 297.056 222.534, 302.885 227.404 C 306.298 230.255, 307.666 230.817, 310.041 230.342 C 314.141 229.522, 317.107 231.768, 321.525 239.042 C 324.444 243.846, 327.283 246.670, 334.714 252.158 C 339.921 256.004, 344.378 258.955, 344.617 258.716 C 345.259 258.074, 347.724 241.633, 348.472 233 C 349.252 223.993, 347.642 206.580, 344.984 195.278 C 338.213 166.486, 319.896 138.050, 296.486 119.989 C 291.174 115.891, 275.151 105.938, 274.090 106.078 C 273.766 106.121, 271.608 107.401, 269.295 108.923 M 233.623 265.141 C 232.872 266.988, 232.008 273.860, 231.703 280.411 C 231.213 290.948, 231.393 292.967, 233.267 297.911 C 234.737 301.793, 235.311 305.333, 235.144 309.500 C 234.849 316.861, 237.372 331.942, 240.581 342 C 241.898 346.125, 242.980 350.512, 242.987 351.750 C 243.027 358.672, 269.936 349.740, 289.831 336.201 C 299.501 329.620, 308.759 321.361, 315.787 313.045 C 323.733 303.642, 329.132 296, 327.827 296 C 326.063 296, 322.166 291.262, 319.338 285.676 C 315.258 277.620, 312.428 274.507, 306.136 271.153 C 296.856 266.207, 289.930 265.064, 262.925 264.021 C 249.409 263.499, 237.594 262.781, 236.669 262.427 C 235.418 261.946, 234.641 262.639, 233.623 265.141 M 181.353 297.750 C 180.503 299.813, 179.004 302.400, 178.021 303.500 C 176.966 304.680, 175.957 307.960, 175.560 311.500 C 174.634 319.760, 173.319 323.511, 168.872 330.569 C 163.707 338.769, 159.271 350.186, 161.877 348.576 C 162.403 348.251, 166.348 349.338, 170.644 350.992 C 177.862 353.772, 179.424 354, 191.246 354 C 203.988 354, 204.036 353.991, 203.557 351.750 C 202.975 349.033, 201.200 333.643, 200.578 325.930 C 199.635 314.238, 195.008 300.627, 190.660 296.750 C 186.216 292.788, 183.267 293.105, 181.353 297.750" stroke="none" fill="#f4661e" fill-rule="evenodd"/></svg>